<?xml version="1.0" encoding="UTF-8"?>
<svg xmlns="http://www.w3.org/2000/svg" version="1.1" xmlns:inkscape="http://www.inkscape.org/namespaces/inkscape" xmlns:sodipodi="http://sodipodi.sourceforge.net/DTD/sodipodi-0.dtd" xmlns:svg="http://www.w3.org/2000/svg" viewBox="0 0 103.3 101.9">
  <!-- Generator: Adobe Illustrator 30.3.0, SVG Export Plug-In . SVG Version: 2.1.3 Build 182)  -->
  <defs>
    <style>
      .st0 {
        fill: #82a1f3;
      }

      .st0, .st1, .st2, .st3, .st4 {
        fill-rule: evenodd;
      }

      .st1 {
        fill: #6189e9;
      }

      .st2 {
        fill: #0f3a67;
      }

      .st3 {
        fill: #fcf8f9;
      }

      .st4 {
        fill: #16273d;
      }
    </style>
  </defs>
  <g id="svg1" sodipodi:docname="btn_music-on.svg">
    <sodipodi:namedview id="namedview1" bordercolor="#666666" borderopacity="1.0" inkscape:current-layer="layer1" inkscape:cx="-10.879648" inkscape:cy="52.742642" inkscape:deskcolor="#d1d1d1" inkscape:document-units="mm" inkscape:pagecheckerboard="0" inkscape:pageopacity="0.0" inkscape:showpageshadow="2" inkscape:window-height="1017" inkscape:window-maximized="1" inkscape:window-width="1920" inkscape:window-x="-8" inkscape:window-y="-8" inkscape:zoom="2.114039" pagecolor="#ffffff"/>
    <g id="layer1" inkscape:groupmode="layer" inkscape:label="Layer 1">
      <g id="g70">
        <path id="path71" class="st2" d="M103.2,51.7C100.1,118.5,3.2,118.5.1,51.7c-3.2-68.8,106.3-68.8,103.1,0Z"/>
        <path id="path72" class="st1" d="M96.5,49.4c-2.8,59.6-89.1,59.6-91.9,0-2.9-61.3,94.7-61.3,91.9,0Z"/>
        <path id="path73" class="st0" d="M10.5,71.5c-3.4-6.1-5.5-13.5-5.9-22.1C1.9-8.9,90-11.8,96.2,40.8c-7.7,43.4-57.9,53.6-85.6,30.7Z"/>
        <path id="path74" class="st3" d="M23.1,28.2c5.2-9,.2-16.6-8.1-4.5-8.4,12.2.4,17.7,8.1,4.5ZM30.8,12.4c1.8.5,2.8,1.8,2.3,3.6s-2.4,2.9-4.3,2.4-2.5-2.3-2-4.1c.5-1.8,2.1-2.4,4-1.9Z"/>
        <path id="path75" class="st4" d="M43.1,55s-9.9-.1-9.6,9.3c.3,9.4,9.9,9.5,12.7,9,2.8-.5,7.7-2.6,7.7-8.8s0-1.4-.2-2.1h0l-1.2-23.7c8,1.6,5,9.2,5,9.2l5.2,5.5s4-3.3,4.6-10.2c.8-9.6-9.3-10.9-15.4-16.1v-.5s-.6-2.9-2.8-2.5c-2.3.4-2.1,2.7-2.1,2.7l2.3,29.3c-1.7-.9-3.9-1.3-6.2-1.2Z"/>
        <path id="path76" class="st2" d="M33.7,65.8c1.2,7.9,9.9,8,12.6,7.5,2.5-.5,6.5-2.1,7.5-6.6h0c0,0,0-.1,0-.1h0s0-.2,0-.2h0s0,0,0,0c0-.6.2-1.2.2-1.9s0-1.4-.2-2.1h0l-1.2-23.7c.1,0,.2,0,.3,0h0s.2,0,.2,0h0s.2,0,.2,0h.1s.2.1.2.1h0s.2.1.2.1h0c0,0,.2,0,.3.1h0c0,0,.2,0,.2.1h0s.1.1.1.1h0s.2.1.2.1h0c0,0,.1.1.2.2h0s.1.1.1.1h0s.2.2.2.2h0c0,0,.1.1.2.2h0s.1.2.1.2h0s.1.2.1.2h0c0,0,0,.1.1.2h0s.1.2.1.2h0s0,.2,0,.2h0c0,0,0,.1.1.2h0s0,.2,0,.2h0s0,.2,0,.2h0c0,.1.1.3.2.4h0s0,.2,0,.2h0c0,.2,0,.3.1.4h0v.2s0,0,0,0v.2s0,0,0,0h0s0,.2,0,.2h0c0,.1,0,.3,0,.4h0s0,.2,0,.2h0s0,.2,0,.2h0s0,.2,0,.2h0v.2h0v.2h0v.2h0v.2s0,0,0,0h0v.2h0s0,.2,0,.2h0s0,.1,0,.1h0s0,.1,0,.1h0c0,0,0,.1,0,.1h0c0,.1,0,.2,0,.2h0s0,.1,0,.1h0c0,0,0,.1,0,.1h0c0,.1,0,.2,0,.2h0s0,.1,0,.1h0c0,0,0,.1,0,.1-.2.7-.3,1.2-.3,1.2l.6.6,1.6,1.7,3,3.2s3.7-3,4.5-9.2c-1.2-7.1-9.9-8.6-15.3-13.3v-.5s-.6-2.9-2.8-2.5c-1.2.2-1.7.9-1.9,1.5l2.1,26.7c0,1.6.1,3.1,0,3.8-1.7-.9-3.9-1.3-6.2-1.2,0,0-8.2,0-9.4,7h0Z"/>
      </g>
    </g>
  </g>
</svg>