<?xml version="1.0" encoding="UTF-8"?>
<svg xmlns="http://www.w3.org/2000/svg" version="1.1" xmlns:inkscape="http://www.inkscape.org/namespaces/inkscape" xmlns:sodipodi="http://sodipodi.sourceforge.net/DTD/sodipodi-0.dtd" xmlns:svg="http://www.w3.org/2000/svg" viewBox="0 0 103.3 101.9">
  <!-- Generator: Adobe Illustrator 30.3.0, SVG Export Plug-In . SVG Version: 2.1.3 Build 182)  -->
  <defs>
    <style>
      .st0, .st1 {
        fill: #0f3a67;
      }

      .st2 {
        fill: #82a1f3;
      }

      .st2, .st3, .st1, .st4 {
        fill-rule: evenodd;
      }

      .st5 {
        fill: #16273d;
      }

      .st3 {
        fill: #6189e9;
      }

      .st4 {
        fill: #fcf8f9;
      }
    </style>
  </defs>
  <g id="svg1" sodipodi:docname="btn_vo-on.svg">
    <sodipodi:namedview id="namedview1" bordercolor="#666666" borderopacity="1.0" inkscape:current-layer="layer1" inkscape:cx="-10.879648" inkscape:cy="52.742642" inkscape:deskcolor="#d1d1d1" inkscape:document-units="mm" inkscape:pagecheckerboard="0" inkscape:pageopacity="0.0" inkscape:showpageshadow="2" inkscape:window-height="1017" inkscape:window-maximized="1" inkscape:window-width="1920" inkscape:window-x="-8" inkscape:window-y="-8" inkscape:zoom="2.114039" pagecolor="#ffffff"/>
    <g>
      <path id="path29" class="st1" d="M103.3,51.6C100.2,118.6,3.2,118.6,0,51.6c-3.2-68.8,106.4-68.8,103.2,0Z"/>
      <path id="path30" class="st3" d="M96.4,49.3c-2.8,59.7-89.2,59.7-92,0-2.8-61.4,94.9-61.4,92,0Z"/>
      <path id="path31" class="st2" d="M10.4,71.5c-3.4-6.1-5.6-13.5-6-22.1C1.7-9,89.9-11.9,96.1,40.7c-7.7,43.5-57.9,53.7-85.7,30.8Z"/>
      <path id="path32" class="st4" d="M23,28.1c5.3-9,.2-16.6-8.1-4.6-8.5,12.2.4,17.8,8.1,4.6ZM30.7,12.3c1.8.5,2.8,1.8,2.3,3.6s-2.5,2.9-4.3,2.4c-1.8-.5-2.5-2.3-2-4.1.5-1.8,2.1-2.4,4-1.9Z"/>
      <g>
        <g>
          <path class="st5" d="M77.5,56.4v13c0,2.7-2.2,5-5,5h-12.1c-1.7,0-3.2-.8-4-2.1-.6-.8-.9-1.8-.9-2.9,0-2.7,2.2-5,5-5h7.2v-8c0-2.7,2.2-5,5-5s4.7,2,4.9,4.5c0,.2,0,.3,0,.5Z"/>
          <path class="st5" d="M48.5,69.4c0,2.7-2.2,5-5,5h-12.1c-1.7,0-3.2-.8-4.1-2.1-.6-.8-.9-1.8-.9-2.9v-13c0-2.7,2.2-5,5-5s4.7,2,4.9,4.5v8.5h7.1c2.6,0,4.7,2,4.9,4.5.2.2.2.3.2.5Z"/>
          <path class="st5" d="M77.5,29.9v13c0,2.7-2.2,5-5,5s-3.2-.8-4-2.1c-.6-.8-.9-1.8-.9-2.9v-8h-7.2c-1.7,0-3.2-.8-4-2.1-.6-.8-.9-1.8-.9-2.9,0-2.7,2.2-5,5-5h12.1c2.6,0,4.7,2,4.9,4.5v.5Z"/>
          <path class="st5" d="M48.5,29.9c0,2.7-2.2,5-5,5h-7.1v8c0,2.7-2.2,5-5,5s-3.2-.8-4.1-2.1c-.6-.8-.9-1.8-.9-2.9v-13c0-2.7,2.2-5,5-5h12.1c2.6,0,4.7,2,4.9,4.5,0,.2,0,.3,0,.5Z"/>
        </g>
        <g>
          <path class="st0" d="M77.5,56.4v13c0,2.7-2.2,5-5,5h-12.1c-1.7,0-3.2-.8-4-2.1v-.5c0-2.7,2.2-5,5-5h7.2v-8c0-2.7,2.2-5,5-5s3.1.8,4,2.1c0,.2,0,.3,0,.5Z"/>
          <path class="st0" d="M48.5,69.4c0,2.7-2.2,5-5,5h-12.1c-1.7,0-3.2-.8-4.1-2.1v-13.5c0-2.7,2.2-5,5-5s3.2.8,4.1,2.1v8.5h.9v2.4h7.2c1.7,0,3.2.8,4,2.1,0,.2,0,.3,0,.5Z"/>
          <path class="st0" d="M77.5,29.9v13c0,2.7-2.2,5-5,5s-3.2-.8-4-2.1v-8.5h-.9v-2.4h-7.2c-1.7,0-3.2-.8-4-2.1v-.5c0-2.7,2.2-5,5-5h12.1c1.7,0,3.1.8,4,2.1v.5Z"/>
          <path class="st0" d="M48.5,29.9c0,2.7-2.2,5-5,5h-7.1v8c0,2.7-2.2,5-5,5s-3.2-.8-4.1-2.1v-13.5c0-2.7,2.2-5,5-5h12.1c1.7,0,3.2.8,4,2.1,0,.2,0,.3,0,.5Z"/>
        </g>
      </g>
    </g>
  </g>
</svg>