<?xml version="1.0" encoding="utf-8"?>
<!-- Generator: Adobe Illustrator 23.1.0, SVG Export Plug-In . SVG Version: 6.00 Build 0)  -->
<svg version="1.1"
	 id="Layer_1" xmlns:inkscape="http://www.inkscape.org/namespaces/inkscape" xmlns:sodipodi="http://sodipodi.sourceforge.net/DTD/sodipodi-0.dtd" xmlns:svg="http://www.w3.org/2000/svg"
	 xmlns="http://www.w3.org/2000/svg" xmlns:xlink="http://www.w3.org/1999/xlink" x="0px" y="0px" viewBox="0 0 1920 1080"
	 style="enable-background:new 0 0 1920 1080;" xml:space="preserve">
<style type="text/css">
	.st0{fill:#E8EEEE;}
	.st1{opacity:0.5;}
	.st2{fill:#FFFFFF;}
	.st3{fill:#AEB458;}
	.st4{fill:#E1443C;}
	.st5{fill:#835634;}
	.st6{fill:#B47948;}
	.st7{fill:#9A6135;}
	.st8{fill:#B65E4F;}
	.st9{fill:#59A040;}
	.st10{fill:#BBBBBB;}
	.st11{fill:#AFB455;}
	.st12{fill:#448A41;}
	.st13{fill:#448B41;}
	.st14{fill:#EE5557;}
	.st15{fill:#9E6B46;}
	.st16{fill:#9C6946;}
	.st17{fill:#5E863C;}
	.st18{fill:#9D473F;}
	.st19{fill:#569146;}
	.st20{fill:#FEE397;}
	.st21{fill:#EF5154;}
	.st22{fill:#FEE497;}
	.st23{fill:#95C249;}
	.st24{fill:#FEE495;}
	.st25{fill:#DDAD75;}
	.st26{fill:#DA9F5E;}
	.st27{fill:#DDA465;}
	.st28{fill:#DEA766;}
	.st29{fill:#DFA767;}
	.st30{fill:#DAA565;}
	.st31{fill:#DCA363;}
	.st32{fill:#E0A665;}
	.st33{fill:#CD965B;}
	.st34{fill:#C58B50;}
	.st35{fill:#CB9357;}
	.st36{fill:#C48D53;}
	.st37{fill:#C58C51;}
	.st38{fill:#CD9255;}
	.st39{fill:#996637;}
	.st40{fill:#F5C989;}
	.st41{fill:#F6CC8E;}
	.st42{fill:#F6CD8F;}
	.st43{fill:#F5D194;}
	.st44{fill:#F4C783;}
	.st45{fill:#F5CB8B;}
	.st46{fill:#F5CA87;}
	.st47{fill:#F5CC8C;}
	.st48{fill:#F4C888;}
	.st49{fill:#F6CE95;}
	.st50{fill:#F6D095;}
	.st51{fill:#F3CA8D;}
	.st52{fill:#9C623D;}
	.st53{fill:#734023;}
	.st54{fill:#DD4239;}
	.st55{fill:#9B613E;}
	.st56{fill:#EDBE92;}
	.st57{fill:#B37949;}
	.st58{fill:#DBF5F6;}
	.st59{fill:#E24039;}
	.st60{fill:#DB403C;}
	.st61{fill:#9B6236;}
	.st62{fill:#B36251;}
	.st63{fill:#5AA23F;}
	.st64{fill:#82D1D5;}
	.st65{fill:#BDE9EC;}
	.st66{fill:#9CCC53;}
	.st67{fill:#438C40;}
	.st68{fill:#C6E8ED;}
	.st69{fill:#448E3F;}
	.st70{fill:#62A73A;}
	.st71{fill:#4FB7C4;}
	.st72{fill:#51B6C7;}
	.st73{fill:#F1545A;}
	.st74{fill:#48B3C0;}
	.st75{fill:#F0555B;}
	.st76{fill:#BE3130;}
	.st77{fill:#A8D4D8;}
	.st78{fill:#AAD3D8;}
	.st79{fill:#9A453F;}
	.st80{fill:#579343;}
	.st81{fill:#549144;}
	.st82{fill:#F05055;}
	.st83{fill:#FEE292;}
	.st84{fill:#FDE38D;}
	.st85{fill:#79C1CA;}
	.st86{fill:#FEE496;}
	.st87{fill:#D99E5E;}
	.st88{fill:#DEA666;}
	.st89{fill:#DFAA6A;}
	.st90{fill:#DDA566;}
	.st91{fill:#DDA464;}
	.st92{fill:#DBA364;}
	.st93{fill:#DDA866;}
	.st94{fill:#DEA867;}
	.st95{fill:#9FD6DB;}
	.st96{fill:#96C650;}
	.st97{fill:#F27667;}
	.st98{fill:#CC9559;}
	.st99{fill:#C89158;}
	.st100{fill:#C68D51;}
	.st101{fill:#C69056;}
	.st102{fill:#CE9356;}
	.st103{fill:#FEFEFE;}
	.st104{fill:#F6C98C;}
	.st105{fill:#F5C88C;}
	.st106{fill:#F4CC97;}
	.st107{fill:#F6D39D;}
	.st108{fill:#F4C688;}
	.st109{fill:#F4CA91;}
	.st110{fill:#F4C487;}
	.st111{fill:#F5CA8D;}
	.st112{fill:#F4CB8D;}
	.st113{fill:#F6CC8F;}
	.st114{fill:#F3CB94;}
	.st115{fill:#DBF6F7;}
	.st116{fill:#BDE8EB;}
	.st117{fill:#9A623D;}
	.st118{fill:#61A53E;}
	.st119{fill:#448C41;}
	.st120{fill:#9FCC5B;}
	.st121{fill:#729D5A;}
	.st122{fill:#478E40;}
	.st123{fill:#61A43A;}
	.st124{fill:#82C9C9;}
	.st125{fill:#8ACDD1;}
	.st126{fill:#4EB5C2;}
	.st127{fill:#54B7C7;}
	.st128{fill:#F15256;}
	.st129{fill:#EE5558;}
	.st130{fill:#835333;}
	.st131{fill:#F14E51;}
	.st132{fill:#FEE491;}
	.st133{fill:#F8D56D;}
	.st134{fill:#4E7340;}
	.st135{fill:#752D27;}
	.st136{fill:#772B26;}
	.st137{fill:#C4877D;}
	.st138{fill:#9C9C9E;}
	.st139{fill:#B97D50;}
	.st140{fill:#E5252B;}
	.st141{fill:#E12228;}
	.st142{clip-path:url(#SVGID_2_);}
	.st143{fill:#CAD3E6;}
	.st144{fill:#597DB0;}
	.st145{fill:#F0AE97;}
	.st146{fill:#C98371;}
	.st147{fill:#2E546F;}
	.st148{fill:#416B8A;}
	.st149{fill:#F0AD96;}
	.st150{fill:#61443C;}
	.st151{fill:#864443;}
	.st152{fill:#6A8A75;}
	.st153{fill:#4B6D5E;}
</style>
<g id="svg1" sodipodi:docname="outro_background.svg">
	
		<sodipodi:namedview  bordercolor="#666666" borderopacity="1.0" id="namedview1" inkscape:current-layer="svg1" inkscape:cx="899.0861" inkscape:cy="547.21163" inkscape:deskcolor="#d1d1d1" inkscape:document-units="mm" inkscape:pagecheckerboard="0" inkscape:pageopacity="0.0" inkscape:showpageshadow="2" inkscape:window-height="1017" inkscape:window-maximized="1" inkscape:window-width="1920" inkscape:window-x="-8" inkscape:window-y="-8" inkscape:zoom="0.37371282" pagecolor="#ffffff">
		<inkscape:page  bleed="0" height="1080" id="page1" margin="0" width="1920" x="0" y="0"></inkscape:page>
	</sodipodi:namedview>
	<rect id="rect165" x="-2.7" y="2.4" class="st0" width="1920" height="1080"/>
	<g class="st1">
		<path id="path166" class="st2" d="M98.5,331.2L0,356.2V192.9c0.1,0,54.2-15,54.2-15L98.5,331.2z"/>
		<path id="path1" class="st3" d="M832.6,1071.2c9.5,3.5,19.2,6.4,28.9,8.8h-33.4c-1-2.5-1.9-5-2.7-7.6c-0.3-0.8-0.3-1.7-0.4-2.6
			C827.9,1068.7,830.2,1070.3,832.6,1071.2L832.6,1071.2L832.6,1071.2z"/>
		<path id="path2" class="st3" d="M1081.1,1071.5c-0.4,2.9-1.2,5.7-2.1,8.4h-28.4c7.2-2.1,14.2-4.6,21.3-7.1
			C1074.8,1071.8,1077.7,1069.7,1081.1,1071.5z"/>
		<path id="path3" class="st4" d="M1705.1,1072.7c-0.3,2.5-2.2,5.7,0.3,7.3h-37.7c3-4.8,7.2-9,12.7-12.4c6.7-4,14.3-2.2,21.4-2.7
			C1707.4,1064.4,1705.4,1069.4,1705.1,1072.7L1705.1,1072.7L1705.1,1072.7z"/>
		<path id="path4" class="st4" d="M1791.8,1080h-82.7c1.3-0.8,2.5-2.2,3.7-3.1c2.1-1.6,4-3.5,5.7-5.5c4.4-5,9.4-6.6,15.6-3.5
			s3.8,1.5,5.8,1.9s4.4,1.2,5.8-0.6c1.6-2-0.3-3.8-1.4-5.5c-6.4-10.3-6.2-10.9,5.1-14.8c2.4-0.8,4.8-2.5,7.5-0.9
			c12.8,2.8,22.4,10.2,29.2,21.1C1788.6,1072.7,1790.4,1076.3,1791.8,1080L1791.8,1080L1791.8,1080z"/>
		<path id="path5" class="st5" d="M471.8,1080h-18.9c2.2-1.3,4.7-2,7.5-2.1C465,1077.3,468.9,1077.9,471.8,1080z"/>
		<path id="path6" class="st6" d="M1611.5,977.7c-3.1,2.4-6.8,2.1-10.1,1.2c-26.6-7.2-54.1-11.2-80.2-20.6c-7.7-2.8-15.3-6-23-9.1
			c-5.7-2.3-9.8-6.4-12.2-12.1c-3-7.1-5.2-14.3-5.6-22.1c-0.5-8.8-0.3-17.7,0-26.5c0.2-3.3,1-6.4,2.1-9.4c1.8-4.7,5.6-7.4,10.1-9.3
			c11.1-4.7,22.1-9.5,33.3-14c28.1-11.2,56.3-22.3,84.4-33.5c4.9-2,9.8-3.9,14.6-6.2c8.1-3.8,16.6-6,25.2-7.8
			c5.2-1.1,10.6-1,15.8-0.2c24.2,3.7,48,9.1,70.9,17.7c5.1,1.9,10.6,3.7,14.2,8.4c-0.3,6.1-5.4,8-9.5,10.6c-4,2.6-8,4.9-9.7,9.7
			c-2,5.9-6.6,7.6-11.9,5.7c-5.7-2-9.8,0-13.5,3.7c-9.7,9.6-21.5,15.1-34.4,18.7c-6,1.7-11.3,4.7-16.5,8.1
			c-13.7,9-29.6,12.6-45.1,16.9c-32.4-12.8-66.3-20.1-100.1-28.1c-14.9-3.5-20.2,0-21.9,15.2c-0.7,6.7-0.5,13.5,0,20.3
			c1.1,17.1,10.4,27,26.5,32.3c30.8,10.2,62.3,17.6,94.3,22.4C1612.1,972,1612,974.8,1611.5,977.7L1611.5,977.7L1611.5,977.7z"/>
		<path id="path7" class="st7" d="M1611.5,977.7c-2.4-1.9-1.6-4.6-1.6-7c0.5-1.1,1.4-1.8,2.2-2.5c0.8-0.9,1.4-1.9,1.9-3
			c5.5-18.3,5.7-36.3-2.1-54c-0.6-1.4-1-2.8-0.4-4.2c1.9-2.5,4.8-2.9,7.7-3.8c10.4-3.2,20.9-5.9,30.6-11c1.6-0.8,3.3-1.5,4.5-2.7
			c4.6-4.4,10.3-6.6,16.2-8.5c3.1-1,6.1-2,9.2-3c8.8-2.8,16.7-7.1,23.2-13.8c1.2-1.2,2.8-2.1,4.1-3.3c4.1-3.8,8.3-6.4,13.8-2.2
			c0.8,0.6,2.3,0.4,3.4,0.4c3.2,0,5.3-1.1,5.7-4.3c0.7-5.4,4.2-8.1,8.5-10.4c4.9-2.6,9.6-5.6,13-10.1c4.3,2.7,5.8,7.2,7,11.8
			c0.9,3.4,1.4,6.9,1.6,10.4c0.4,9.7,0.4,19.4,0.9,29.1c0.5,9.3-3.6,15.8-11.4,20.3c-6.6,3.8-13.4,7.3-19.9,11.4
			c-12.2,7.7-24.9,14.3-38.2,19.9c-12.4,5.3-24.3,11.7-36.1,18.4c-13,7.4-26.4,14.1-39.8,20.6c-0.7,0.2-1.4,0.5-1.9,1
			C1612.8,977.4,1612.2,977.6,1611.5,977.7L1611.5,977.7L1611.5,977.7z"/>
		<path id="path8" class="st8" d="M1624.1,701.9c3.1-8.3,7.8-15.7,12.6-23c2.6-4,5.9-7.3,9.9-9.8s8-4.8,12.1-7.2
			c5.2-3.1,10.6-4.4,16.8-3c5.4,1.2,11,1.7,16.5,2.3c12.3,1.4,21.1,8.3,27.8,18.1c3.3,4.8,6.6,9.7,8.7,15.2c0,3.3,0,6.6-1.5,9.5
			c-4,7.5-7.7,15.1-8.7,23.8c0,0.9-0.6,1.6-1,2.4c-5.4,10.8-34.4,23.5-46.1,20.2c-10.6-3-20.4-7.8-29.6-13.6
			C1629.3,728.8,1623,717,1624.1,701.9L1624.1,701.9L1624.1,701.9z"/>
		<path id="path9" class="st9" d="M719.4,1074c-2.1,1.8-4,3.8-5.5,5.9h-86.1c-2.6-3.5-3.7-7.9-3.3-13.1c0.4-5.5,1.1-11,0.6-16.6
			c-0.4-5,3-8.7,6.5-11.9c9.3-8.3,9.1-10.7-1.6-16.8c3-2.5,6.6-1.9,10-1.9s3.8-0.7,5.3-2.3c6.7-7.3,14.9-8.2,24-5.5
			c1.6,0.5,3.4,0.7,5.1,1c14.1-1.8,25.8,5.7,34.6,14.1c6.5,6.2,11.6,15.8,15.7,24.6C728.5,1059.6,726.5,1068,719.4,1074z"/>
		<path id="path10" class="st10" d="M587.1,991c-1,1.8-2,3.6-3.1,5.3c-9,13-18,26.1-27.2,39.1c-3.8,5.3-8.4,9.9-13.5,13.9
			c-9,7.1-19.5,9.8-30.7,6.9c-4.2-1.1-6.6,0-9.3,2.8c-5.8,6-9.6,13.4-14.8,19.8c-0.3,0.3-0.5,0.7-0.8,1.1h-20.1
			c-1.1-0.6-2.4-1.1-3.7-1.4c-1.1-0.3-2.3-0.4-3.4-0.7c8.2-9.6,16.4-19.2,24.7-28.8c0.8-0.9,1.3-2,2.1-2.8c2.6-2.9,3.4-5.8,1.3-9.6
			c-2.1-3.9-3-8.2-3.5-12.6c-1.3-12.9,3.4-23.7,11.2-33.4c4.6-5.7,9.6-11.1,14.6-16.5c7.2-7.8,14.4-15.6,21.6-23.3
			c1.6-1.7,3.4-3.2,5.3-4.6c1.3-1,2.8-0.7,4.1,0.3c1.5,1.2,2.1,2.9,1.3,4.7c-0.6,1.3-1.6,2.4-2.5,3.6c-8.7,11.1-17.4,22.2-26.1,33.3
			c-1.3,1.6-2.3,3.4-3.4,5.2c-0.8,1.4-0.6,2.8,0.7,4c1.5,1.4,3.3,1.8,4.8,0.6c2.5-2.1,4.9-4.3,7-6.7c6.8-8.1,13.5-16.3,20.3-24.4
			c2.1-2.5,4.4-4.8,6.6-7.1c1.1-1.1,2.4-1.6,4-1.6s2.8,0.7,3.8,1.9c1.1,1.4,0.7,2.7,0,4c-5.5,9-12.1,17.3-18.6,25.7
			c-3.1,3.9-6,8-8.8,12.2c-1.3,1.9-2.1,4.2-2.8,6.4c-0.4,1.1,0.3,2.3,1.3,3.1c1.1,0.8,2.3,0.6,3.2-0.3c2.7-2.7,5.5-5.3,8-8.2
			c7.8-9.2,15.5-18.5,23.2-27.7c1.1-1.3,2.3-2.7,3.7-3.7c1.8-1.3,3.9-1.3,5.8,0c1.2,0.9,2.3,2.1,1.6,3.7c-0.8,1.9-1.7,3.8-2.9,5.4
			c-4.8,6.6-9.8,13.2-14.7,19.8c-3.7,4.9-7.5,9.8-11.2,14.8c-0.9,1.2-1.7,2.4-2.4,3.7c-1.5,2.5-1.3,4.2,0.4,5.4
			c1.8,1.3,3.4,0.6,4.7-0.8c3.6-3.9,7.3-7.6,10.8-11.7c6.2-7.4,12.2-15.1,18.4-22.5c1.7-2,3.7-3.8,5.8-5.4c1.7-1.4,4.4,0,4.6,2.2
			C588.2,987.7,588.1,989.4,587.1,991L587.1,991L587.1,991z"/>
		<path id="path11" class="st11" d="M1086.1,1050c-0.6,2.9-1.1,5.8-1.7,8.6c-6.2,8.9-16,11.7-25.6,14.4c-10.4,3-20.9,5.2-31.4,6.9
			H883.7c-2.3-0.3-4.5-0.6-6.8-0.9c-15.2-2.1-29.9-6.4-44.2-12.1c-4.3-1.7-7.6-4.3-10-8.1c-2.5-4.9-1.9-10.2-1.7-15.5
			c0-2.2,1.5-3.7,3.1-5.1c4-3.6,8.8-5.9,13.7-7.8c8-3.2,16.2-5.2,24.6-6.8c13.8-2.8,27.7-4.5,41.8-5.8c18.1-1.6,36.3-2.4,54.5-2.5
			c12,0,24.1,0.4,36.1,1.5c21.6,2,43.2,4.1,64.2,10.2c4.2,1.2,8.4,2.7,12.4,4.3c3,1.2,5.8,2.9,8.5,4.6
			C1085,1039.1,1087.4,1043.7,1086.1,1050L1086.1,1050L1086.1,1050z"/>
		<path id="path12" class="st12" d="M640,1023.4c1.7,3.4,1.2,7.5,0.2,11.2c-0.4,1.8-2.2,2.6-3.8,3.4c-2.3,1.2-4.5,2.3-6.2,4.7
			c-2.9,4.1-4.9,8-1.8,12.8c0.8,1.3,1,2.7,0,4.1c-3.2,4.5-1.6,9.6-1.6,14.5s0.4,1.8,1,2.4c1.1,1.1,2.1,2.3,3.1,3.5H599
			c1.7-1.4,3.5-2.8,5.2-4.1c0.5-2.4-1.2-3.9-2.3-5.6c-5.7-8.8-0.9-22.4,7.5-26.9c0.8-0.4,1.5-0.9,2.4-1.2c3.1-0.9,4.8-3,5.4-6.2
			c1.2-6.2,5.1-10.4,10.3-13.6c0.7-0.4,1.7-0.5,2.5-0.7h1.8C634.7,1021.9,638.5,1020.3,640,1023.4L640,1023.4L640,1023.4z"/>
		<path id="path13" class="st13" d="M764.2,1075.8c-0.8,0.4-1.6,0.7-2.5,0.9c-1.6,0.4-2.5,1.3-2.7,2.9v0.4h-48.5
			c0.9-1.6,2.3-3,3.5-4.5c1.1-1.3,3-1.9,4.3-3.1c7.7-6.9,8.2-18.4,1.2-26c-0.8-0.9-1.6-1.8-2.5-2.5c-3.5-2.5-5.4-5.3-5.7-10.1
			c-0.3-5.2-4.5-8.8-9.6-10.2c-2.6-0.7-5.4-1.1-7.3-2.8c-4.5-4.4-10.2-5.5-16-6.1c-1.5-0.2-2.9-0.4-3.9-1.7c0.2-0.3,0.3-0.5,0.5-0.8
			c10.9-12.3,24.4-12.3,36.1-1.1c0.4,0.4,0.9,0.8,1.2,1.3c1.9,2.3,4.1,3.2,7,1.7c2.7-1.4,5.7-1.4,8.6-1.5c5.9,0,11.1,1.5,15,6
			c2.1,2.4,4.5,3.1,7.7,3.2c10.8,0.3,17.1,6.8,17.4,17.9c0,2.8,0,5.2,2.4,7.1c0.4,0.4,0.8,0.9,1.1,1.3
			C779.1,1058.8,776.2,1070,764.2,1075.8L764.2,1075.8L764.2,1075.8z"/>
		<path id="path14" class="st14" d="M1182.2,1062.6c2.1,4.9-2.8,7.2-4.1,10.8c-0.8,2.1-1.7,4.2-2.4,6.6h-46.9
			c0.9-1.2,1.8-2.3,2.7-3.4c1.6-2,2.1-4,1.5-6.5c-0.7-2.6-0.9-5.2-1.5-7.8c-1.2-4.8,0.8-8,4.6-10.4c2-1.2,4.1-2.3,6.3-3.1
			c3-1.2,4.7-3.3,5.6-6.3c0.7-2.5,1.4-5.1,2.4-7.5c2.7-6.4,5.8-7.1,11.5-2.8c3.6,2.6,6.4,6,9,9.6c3.6,5,6.2,10.7,8.9,16.2
			C1180.6,1059.4,1181.4,1061,1182.2,1062.6L1182.2,1062.6L1182.2,1062.6z"/>
		<path id="path15" class="st14" d="M1234.1,1065.3c-2.8,5.4-6,10.3-9.6,14.7h-36.8c9.3-4.6,17-11.3,23-20.4c1.9-2.9,2.7-7.7,8-6.5
			c5.6,0.6,11.1,1.8,16.3,4C1237.1,1060.1,1235.4,1062.8,1234.1,1065.3L1234.1,1065.3L1234.1,1065.3z"/>
		<path id="path16" class="st15" d="M1528.3,1080h-28.8c-6.2-4.3-12.3-8.5-18.4-12.9c-27.1-19.3-54.1-38.6-81.1-58
			c-15.3-11-30.4-22.1-45.7-33.3c-1.7-1.2-3.2-2.6-4.7-4c-1.8-1.8-2-3.8-0.9-5.6c1.5-2.5,4.3-3.6,6.8-2.5c1.9,0.9,3.6,2,5.3,3.1
			c25.7,16.5,51.4,33.1,77.2,49.7c18.3,11.8,36.7,23.4,55,35.2c11.8,7.7,23.6,15.6,35.3,23.3
			C1528.6,1076.8,1528.6,1078.4,1528.3,1080L1528.3,1080L1528.3,1080z"/>
		<path id="path17" class="st16" d="M1465.4,1080h-32.6c-7.4-5.1-14.7-10.2-22.1-15.3c-24.2-16.7-48.3-33.5-72.5-50.3
			c-2.4-1.7-4.8-3.4-7-5.3c-1.1-0.9-2.1-2.1-2.8-3.3c-1.1-2-0.6-4,0.9-5.7c1.3-1.5,3-2,4.8-1.4c1.6,0.5,3.3,1.4,4.7,2.3
			c22.3,14.8,45.6,28.1,68.2,42.3C1426.5,1055.4,1445.9,1067.7,1465.4,1080L1465.4,1080L1465.4,1080z"/>
		<path id="path18" class="st17" d="M892.3,1078.6c4.3,0.5,8.5,1,12.8,1.4H851c-5.6-1.6-11.2-3.3-16.8-5.2c-3.4-1.2-6.2-3.3-9.3-5
			c-1.2-3.6-2.7-7.1-2.4-11c9.2,6.1,19.6,9.4,30,12.3C865.7,1074.7,878.9,1077,892.3,1078.6L892.3,1078.6L892.3,1078.6z"/>
		<path id="path19" class="st17" d="M1084.4,1058.6c0,4.6-1,8.9-3.3,12.9c-6.9,3.3-14,6.1-21.2,8.4h-50.8c4.3-0.6,8.7-1,13-1.6
			c16.3-2.4,32.3-5.7,47.7-11.9c3.6-1.4,6.8-3.4,10-5.5C1081.3,1060,1082.6,1058.9,1084.4,1058.6z"/>
		<path id="path20" class="st18" d="M1624.1,701.9c1.3,1,1.5,2.4,1.6,3.9c0.9,14.5,8.4,24.7,20.9,31.3c8.3,4.4,16.6,8.6,25.7,11.4
			c6.2,1.9,11.8,1.2,16.9-1.8c6.1-3.6,12.4-6.7,18.7-9.7c6.3-3,9.1-8.3,9.5-14.6c0.3-4.6,1.2-8.6,4.1-12.1s4.2-7.6,5-12
			c0.3-1.5,0.8-2.8,2.2-3.6c2.1,1.3,3,3.6,4.2,5.6c1.8,3.1,2.6,6.4,1.6,10.1c-1.8,7.4-4.2,14.8-4.9,22.3
			c-0.9,9.8-5.5,16.4-13.7,21.1c-3.3,1.9-6.3,4.4-9.2,6.8c-5.9,5-12.7,7.2-20.4,6.8c-5.9-0.3-11.7-0.2-17.6,0
			c-8.8,0.5-16.2-2.2-21.3-9.8c-1.9-2.8-4.5-4.6-7.4-6.1c-7.4-3.8-11.2-9.8-12.6-18c-1.1-6.3-2.9-12.6-4.4-18.8
			C1622,710.3,1622,705.9,1624.1,701.9L1624.1,701.9L1624.1,701.9z"/>
		<path id="path21" class="st19" d="M1741.7,1057.1c2.2,2.7,4.5,5.4,6.8,8.1c0.7,0.9,1.4,1.9,1.9,2.9c0.9,1.7,0,3.8-1.8,4.2
			c-3.2,0.8-6.4,0.7-9.6-0.3c-2.5-0.9-4.9-1.8-7.4-2.9c-3.7-1.5-6.9-0.8-9.8,2.1c-2.3,2.3-4.5,4.6-6.7,7c-0.6,0.6-1.2,1.2-1.8,1.7
			h-11.7c0-2.5,0.2-5,1.1-7.4c0.5-1.4,0.9-2.8,1.2-4.2c0.3-1.3-0.2-2.7-1.7-2.2c-7.2,2.4-14.6,0.6-21.8,1.4c0-1.3-0.8-2.2-1.7-2.9
			c-1.4-1.2-1.7-2.4,0-3.5c4.5-3.2,9.1-6.5,13.7-9.6c6.4-4.4,13.3-5.8,20.8-3.7c1.4-1.8,0-2.9-0.8-3.8c-2.3-3-4.8-6-7.5-8.6
			c-2.6-2.6-3.5-3.6,0.9-6.7c3.8-2.7,6.1-2.5,9.1,1.1c3.3,3.9,5.2,8.5,6.9,13.2c0.6,1.7,1.9,2.4,3.4,1.4c8.5-5.5,17.5-6.1,27-3.7
			c1.9,0.5,4.1,0.4,6,0.5c1.4,2.6-1.1,4.6-0.8,6.9c-4.4,2.3-9,4.2-13.9,5.3C1740.9,1053.9,1740.4,1055.3,1741.7,1057.1
			L1741.7,1057.1L1741.7,1057.1z"/>
		<path id="path22" class="st20" d="M1248.9,1080h-27.1c6.1-6.6,10.8-14.1,13.3-22.9c5.7,1,13,4.6,17.6,8.7
			C1252.9,1071.2,1251.3,1075.7,1248.9,1080L1248.9,1080L1248.9,1080z"/>
		<path id="path23" class="st21" d="M1267,1080h-21.1c2.5-4.6,4.5-9.4,6.7-14.1c5.6,3.2,10.6,7.2,14.3,12.5L1267,1080L1267,1080
			L1267,1080z"/>
		<path id="path24" class="st22" d="M1266.2,1080c0.2-0.5,0.5-1.1,0.7-1.6c0.7,0.5,1.7,0.8,2.1,1.5L1266.2,1080L1266.2,1080
			L1266.2,1080z"/>
		<path id="path25" class="st23" d="M1761.6,1013.3c6.6-3.3,12.8-7.1,18.2-12.2c2.3-2.2,3.3-4.6,3.2-7.8c0-5.6,0-11.2,0.2-16.8
			c0-0.8,0.4-1.9,1.6-1.7c0.8,0,1.6,0.5,2.2,1c1.2,1.1,1.3,2.6,1.3,4.1v9.7c0,1.3-0.6,2.9,0.8,3.9c1.5,0.3,2.2-0.7,3-1.5
			c2.5-2.5,4.9-5.1,7.6-7.4c5.3-4.6,9.4-9.6,8.1-17.3c-0.3-1.8,0.5-3.5,1.5-5c0.4-0.6,1.2-1.4,1.8-1.5c1.7-0.2,1.6,1.4,1.8,2.4
			c0.4,2.5-0.5,5.1,1.1,8.1c5.5-4.2,10.3-9,16.5-11.3c1.5,1.7,0,2.4-0.6,3.1c-1.8,2-3.9,3.7-5.5,5.7c-1.4,1.7-4.6,2.8-3.1,5.6
			c1,2,3.7,0.9,5.7,1.3c0.9,0.2,1.8,0.2,2.6,0.5c1.2,0.4,2.1,1.3,2.1,2.5s-1,2-2.3,2.1c-2.4,0-4.7,0.3-7.1,0
			c-6.6-0.4-12,2.4-16.7,6.7c-3.5,3.2-6.4,6.8-11.1,9.2c1.3,2.8,3.6,3.3,5.8,3.5c2.9,0.3,5.9,0,8.8,0.2c1.8,0,3.5,0.5,4.7,2
			c0.8,1,1,2.2,0.4,3.3c-0.3,0.6-1.5,1.1-2.2,1c-7-1.9-14.1-0.6-21.1-1.1c-3.7-0.2-7,0.9-9.9,3.1c-4.9,3.7-10.4,6.5-15.9,9.2
			c-1.9-0.9-3.1-2.5-3.5-4.7l0,0V1013.3z"/>
		<path id="path26" class="st24" d="M1218.8,1053.1c-1.3,0.6-2.7,1.1-3.4,2.6c-4.7,10.1-13.2,18.4-23,24.3h-19.1
			c1.5-4.9,3.5-9.5,7-13.5c0.9-1.1,1.3-2.6,1.9-3.9l0,0c1.6-0.6,3.4-1,4.8-1.9c6.7-4.2,14.4-5.8,21.8-8
			C1212.1,1051.7,1215.5,1051.2,1218.8,1053.1L1218.8,1053.1L1218.8,1053.1z"/>
		<path id="path27" class="st25" d="M1528.4,1075.1c2.5,1.6,5,3.3,7.5,4.9h-9.3C1527.3,1078.4,1527.9,1076.8,1528.4,1075.1z"/>
		<path id="path28" class="st10" d="M1774.3,534.1c-0.2,1.1-0.9,1.4-1.9,1.2C1772.7,534.4,1773.2,533.9,1774.3,534.1z"/>
		<path id="path29" class="st6" d="M1613.5,977.3c0.4-0.8,1-1.3,1.9-1C1615.1,977.2,1614.5,977.5,1613.5,977.3z"/>
		<path id="path30" class="st26" d="M1613.2,970.3c-1.1,0-2.2,0.2-3.3,0.3c-2.5,0.8-4.9,1.8-7.7,1.1c-18.3-4.1-36.7-7.7-54.8-12.2
			c-11.9-3-23.6-7.1-35.3-10.9c-2.8-0.9-5.3-2.7-8-3.7c-10.3-3.8-14.1-12.2-16.5-22.1c-2.2-9.1-1.6-18.1-1.4-27.2
			c0-3.7,1.1-7.5,2.3-11.1c2.2-6.8,9.2-10.8,16.1-8.9c19.3,5.1,38.9,8.6,58,14.4c10.1,3.1,20.5,5,30.5,8.4
			c6.5,2.2,12.4,5.3,18.4,8.4c4.4,5.7,6.6,12.2,7.5,19.4c0.8,5.9,1.8,11.7,1.3,17.5c-0.7,8.4-1.1,17-5.2,24.7
			C1614.5,969.3,1613.9,969.9,1613.2,970.3L1613.2,970.3L1613.2,970.3z"/>
		<path id="path31" class="st27" d="M1656.8,829.1c3.5,2.1,8,1.3,11.5,4.2c2.2,1.8,5.1,2.9,7.7,4.2c1.9,0.9,3.5,2.1,4.9,3.7
			c1.2,1.5,1.6,3.1,0.7,4.9c-0.9,1.7-2.5,2.4-4.4,2.4c-3.4,0-6.4-1.5-8.6-4c-3.4-4-7.6-5.2-12.6-4.7c-2,0.2-4.1,0-6.2,0
			s-3.3-1.2-4.5-2.5c-1.2-1.2-1.2-2.6,0-3.8c3.2-3.1,7.2-3.6,11.4-4.3l0,0L1656.8,829.1z"/>
		<path id="path32" class="st28" d="M1609,866.5c-2.3-0.3-4.7-0.3-7-0.8c-2.2-0.5-2.9-3.3-1.5-4.9c4.8-5.8,13.6-6.8,19.9-2.2
			c1.6,1.2,1.6,3.3,0.2,4.5C1617.2,866,1613.2,866.6,1609,866.5z"/>
		<path id="path33" class="st29" d="M1607.3,848.7c-3.4,0.4-6.3-1.2-9.4-2c-1.5-0.4-3-1.1-2.8-2.8c0-1,1.1-2.2,2-2.7
			c5.3-2.5,10.7-2.2,16.1-0.4c1.4,0.5,2.6,1.8,2.6,3.3s-1.6,3.2-3.3,3.8C1610.8,848.5,1609,848.5,1607.3,848.7L1607.3,848.7
			L1607.3,848.7z"/>
		<path id="path34" class="st30" d="M1698.7,845.2c-2-0.2-4.1-0.3-6.1-0.7c-0.7,0-1.6-0.9-1.9-1.6c-0.2-0.6,0-1.9,0.6-2.3
			c4.8-4,10.3-5.4,16.4-3.8c2.1,0.6,2.9,3.3,1.5,5c-1.4,1.6-2.9,3-5.1,3.1h-5.3L1698.7,845.2L1698.7,845.2L1698.7,845.2z"/>
		<path id="path35" class="st31" d="M1570.5,878.7c-1.4,0-2.9,0-4.4-0.3c-2.1-0.4-3.8-1.6-4.6-3.7c-0.6-1.3,0.9-3,3.9-3.9
			c4.5-1.4,9.1-2.3,13.4,0.9c2.1,1.5,1.9,3.4,0,5.1C1576.4,879,1573.4,878.5,1570.5,878.7z"/>
		<path id="path36" class="st32" d="M1645.3,850.4c6.2-0.4,9,1.9,11,5.5c0.2,0.4,0,1.2-0.2,1.6c-2.4,3-7.2,4-11.1,2.4
			c-1.1-0.4-2.2-0.9-3.1-1.6c-1.3-1-3.2-2-2.6-4.1c0.5-1.8,2-2.9,3.7-3.4C1644.3,850.3,1645.8,850.4,1645.3,850.4L1645.3,850.4
			L1645.3,850.4z"/>
		<path id="path37" class="st33" d="M1710.4,909.9c0,0.5-0.3,1.3-0.6,2.1c-1.8,4.2-5.1,7.1-8.6,9.8c-0.8,0.6-2.2,0.8-3.3,0.8
			c-3.3,0-5.5-2.8-4.4-5.9c1.9-5.7,6.1-9.2,11.6-11.2C1707.6,904.5,1710.6,906.9,1710.4,909.9L1710.4,909.9L1710.4,909.9z"/>
		<path id="path38" class="st34" d="M1641.2,915.7c0,0.9,0.2,1.6,0,2.1c-1.6,3.7-3,7.7-6.2,10.4c-1.4,1.2-3,1.8-4.8,0.9
			c-1.4-0.7-2.5-1.9-2.4-3.4c0-4.4,1-8.7,4.5-11.9c1.9-1.8,4.2-2.1,6.5-1C1640.1,913.4,1641,914.5,1641.2,915.7z"/>
		<path id="path39" class="st35" d="M1637.1,957.9c-2.9-0.2-6.3-3.6-5.8-6c0.7-3.4,1.3-6.9,4.1-9.5c1.4-1.3,2.9-2.2,4.8-1.6
			c2.1,0.6,3.6,2.1,4.2,4.2c1,3.4-2,10.4-5.1,12.3C1638.5,957.6,1637.6,957.7,1637.1,957.9z"/>
		<path id="path40" class="st36" d="M1747.6,858.4c0,1.9-0.2,3.3-1.2,4.4c-1.8,1.9-3.6,3.8-5.5,5.6c-1.1,1.1-2.6,1.5-4,0.7
			c-1.9-1-1.8-3-1.3-4.6c1.1-4.1,3.5-7.3,7-9.7c1.4-1,3.7-0.2,4.4,1.4C1747.3,857,1747.4,857.9,1747.6,858.4L1747.6,858.4
			L1747.6,858.4z"/>
		<path id="path41" class="st37" d="M1719.9,873.4c0.5,0,1.1,0,1.6,0.3c1.9,0.6,3.1,2.6,3,4.8c0,3.4-3,6.6-6.4,7.1
			c-2.1,0.3-4.3-0.7-5.1-2.5c-1.4-3.2,0.6-5.6,2.2-7.9C1716.3,873.7,1718,873.2,1719.9,873.4L1719.9,873.4L1719.9,873.4z"/>
		<path id="path42" class="st38" d="M1666.9,913.9c-0.5-0.3-1.6-0.6-2.5-1.3c-0.6-0.5-1.1-1.5-1.1-2.2c0.5-4.7,7-8.4,11.2-6.2
			c1.3,0.7,2.3,2,1.6,3.6C1674.6,911.3,1670.7,914,1666.9,913.9L1666.9,913.9L1666.9,913.9z"/>
		<path id="path43" class="st6" d="M1613.2,970.3c0.6-0.6,1.2-1.2,1.8-1.7C1614.7,969.5,1614.1,970.1,1613.2,970.3z"/>
		<path id="path44" class="st39" d="M958.7,1065.9H936c-4.7,0-9.4,0.4-14-1.3c-0.8-0.3-1.8-0.3-2.6-0.3c-9.5,0.7-18.7-1.9-28.1-2
			c-3.2,0-6.3-1.1-9.5-1.7c-12.1-2.3-24.3-4.1-35.8-8.6c-2.5-0.9-5-1.9-7.2-3.3c-4.2-2.8-4.3-5.9-0.9-9.4c2.1-2.1,4.6-3.7,7.4-4.7
			c9.7-3.6,19.7-5.9,29.8-7.5c8.4-1.3,16.8-2.4,25.2-3.4c2.6-0.3,5.3-0.2,7.9-0.2c3.8,0,7.6,0,11.4-1.1c2.5-0.7,5.2-0.6,7.9-0.6
			h52.1c3.5,0,7,0,10.5,1.1c1.6,0.5,3.5,0.5,5.2,0.6c17.7,0.3,35,3.3,52.1,7.2c5.4,1.2,10.8,3,15.8,5.3c2.1,1,4.2,2.2,6,3.6
			c2.9,2.2,3,4.1,0.6,6.6c-1.6,1.7-3.3,3.3-5.6,4.2c-3.8,1.5-7.5,3.6-11.4,4.6c-10.8,2.7-21.6,5.7-32.6,7c-7.8,1-15.6,3-23.6,2.3
			h-3.5c-12.1,2.7-24.5,0.9-34.4,1.5l0,0L958.7,1065.9z"/>
		<path id="path45" class="st40" d="M1531.9,921c-4,0.2-7-1.5-9.8-3.8c-1.6-1.3-3-2.8-4.4-4.3c-1.7-1.9-1.9-4-0.7-5.6
			c1.4-1.9,3.4-2.6,5.4-2c4.2,1.2,8.3,2.9,11.5,6.2c0.8,0.8,1.7,1.7,2.3,2.6c1.9,2.6,0.4,6.1-2.9,6.7
			C1532.8,920.8,1532.3,920.8,1531.9,921L1531.9,921L1531.9,921z"/>
		<path id="path46" class="st41" d="M1578.8,928c-0.4,0-1.6-0.3-2.5-1c-3.4-2.5-5.9-5.7-7-9.8c-0.4-1.4-0.4-2.9,0.8-4.1
			c1.2-1.1,2.8-1.3,4.1-0.7c4.6,2.2,8,5.8,10.4,10.2C1586,925.2,1582.9,928.2,1578.8,928L1578.8,928L1578.8,928z"/>
		<path id="path47" class="st42" d="M1497.9,883.9c5.2,0.4,9.9,6.4,9.2,11.9c-0.3,2.5-2.8,3.9-5.1,3c-4.5-1.7-7.1-5-8.5-9.4
			C1492.2,885.9,1494.1,883.6,1497.9,883.9z"/>
		<path id="path48" class="st43" d="M1556.1,956.3c-3.4,0.2-6.2-1.3-8.7-3.3c-2.2-1.7-2.9-3.6-2.1-5.1c1.7-3,4.4-4.3,7.1-3.4
			c3.1,1.1,5.6,3,7.7,5.5c1,1.1,1.9,2.3,1.1,3.8c-0.7,1.3-1.9,2.1-3.5,2.3C1557.2,956.3,1556.7,956.3,1556.1,956.3z"/>
		<path id="path49" class="st44" d="M1561.3,929.8c-3.4,0.4-6.3-0.6-9.1-2.4c-1.5-1-2.4-2.5-2.5-4.3c-0.2-3.7,2.8-6.1,6.2-4.9
			c3.7,1.3,6.6,3.7,8.8,6.8c1.6,2.2,0.2,4.7-2.6,4.9L1561.3,929.8L1561.3,929.8z"/>
		<path id="path50" class="st45" d="M1570.2,935.1c3.4-0.4,5.6,2.1,7.8,4.4c1,1.1,1.8,2.3,1,3.9c-1.1,2.2-3.8,4-5.5,3.4
			c-2.2-0.8-4.3-1.8-6.3-3c-3.4-2-5.1-4.5-4.2-5.9C1563.9,936.4,1567.1,935.1,1570.2,935.1L1570.2,935.1L1570.2,935.1z"/>
		<path id="path51" class="st46" d="M1530.1,943.9c-4,0-8.7-2.9-10.2-6.8c-0.7-1.7,0.5-4.3,2.4-5c2-0.8,4.1-0.9,5.8,0.4
			c1.8,1.4,3.5,3,5.1,4.7c1.2,1.2,2.5,2.6,1.3,4.5C1533.6,943.5,1531.9,943.9,1530.1,943.9L1530.1,943.9L1530.1,943.9z"/>
		<path id="path52" class="st47" d="M1556.2,902.9c-0.2,0.7,0,1.4-0.4,1.8c-2.1,2.8-6.2,4.2-9.3,3.1c-1.1-0.4-2.2-0.9-3.2-1.5
			c-1.4-0.9-3.6-1.2-3.5-3.4c0-2.3,1.9-3.8,3.8-4.3c4-1.1,8.1-1.6,11.3,2.2C1555.4,901.5,1555.8,902.3,1556.2,902.9L1556.2,902.9
			L1556.2,902.9z"/>
		<path id="path53" class="st48" d="M1594,908.5c1.2,0.2,2.9,0.3,4.6,0.8c3.4,1.1,5.7,3.4,5.3,5.1c-0.7,2.5-6,5.2-8.8,4.3
			c-2.2-0.7-4.4-1.7-6-3.5c-1-1.1-2-2.3-1.4-3.8c0.5-1.5,1.8-2.3,3.3-2.6C1591.7,908.8,1592.6,908.8,1594,908.5z"/>
		<path id="path54" class="st49" d="M1505,911.3c0,2.7-2.4,4.7-3.9,4.2c-4.1-1.5-8.1-3.4-10.2-7.7c-0.7-1.5-0.4-2.8,0.7-4
			c1-1.1,2.3-2.1,3.8-1.6c4.9,1.4,8.1,4.6,9.5,9.5C1505.1,911.9,1504.9,912.2,1505,911.3L1505,911.3L1505,911.3z"/>
		<path id="path55" class="st50" d="M1598.7,928.1c1.8,0,3.5,0.5,4.8,1.7c1.7,1.6,3.4,3.2,5.1,4.9c1,1,2.3,2.1,1.6,3.7
			c-0.8,2-2.7,2.1-4.5,1.9c-5-0.7-8.5-3.7-11.2-7.7c-1.2-1.8,0-4.3,2.4-4.5C1597.5,928.1,1598.1,928.1,1598.7,928.1L1598.7,928.1
			L1598.7,928.1z"/>
		<path id="path56" class="st51" d="M1524.9,891.9c0,3.4-2.2,4.8-4.8,4.1c-3-0.8-4.9-3.1-6.5-5.4c-1.8-2.5,0-6,3.1-6.6
			c3.3-0.6,7,1.7,8,5.2C1525,890.3,1524.9,891.5,1524.9,891.9L1524.9,891.9L1524.9,891.9z"/>
		<path id="path57" class="st52" d="M34.8,1065.9c-0.4,0.8-0.6,1.7-1.1,2.3c-3.6,4.1-7.3,8.1-11.2,11.8H0v-15.3
			c6.7,0.6,13.4,0.9,20.2,0.8C25,1065.3,30,1062.6,34.8,1065.9L34.8,1065.9L34.8,1065.9z"/>
		<path id="path58" class="st53" d="M37.4,1029.9c-4,8.4-13.7,8.5-21.9,7.7c-5.2-0.5-10.3-1.1-15.5-1.8v-47.2
			c10.1,6.1,19.6,12.9,28,21.3C33.7,1015.6,41.4,1021.3,37.4,1029.9L37.4,1029.9L37.4,1029.9z"/>
		<path id="path59" class="st54" d="M129.8,1080H98.6c2.8-2.1,5.9-3.9,9.3-5.4c6.6-2,12.6,1.2,18.7,2.5
			C128.8,1077.5,129.6,1078.6,129.8,1080z"/>
		<path id="path60" class="st54" d="M199,1080h-31c-0.2-0.3-0.3-0.6-0.5-0.9c-1.1-2.6-0.5-5.1,2.3-5.6c5.3-0.9,10.6-3.8,16.1-0.5
			C191,1074.5,195.3,1076.9,199,1080L199,1080L199,1080z"/>
		<path id="path61" class="st55" d="M52.2,1039.7c-2.7,5.2-5.6,10.2-9.9,14.3c-6.7,4-14.1,3.8-21.4,3.5c-7-0.3-14-0.9-20.9-1.7
			v-21.9c2.4,0.3,4.8,0.5,7.2,0.3s2.4,0,3.5,0.4c6.5,2.7,12.7,0.6,19-0.7c1.1-0.2,2.2-0.8,3.2-1.4c3.5-1.8,4.8-4.5,3.3-8
			c-1.8-4.4-4.3-8.3-8-11.4c-0.9-0.7-2.1-1.2-2.9-2c-7.4-8-16.3-14.1-25.5-19.7v-8.3c3.6,0.2,7,1.8,10.2,4.9
			c8.7,6,17.3,11.9,25.1,19.1c4.5,4.2,9.1,8.3,12.6,13.3c1.7,2.4,3.3,4.8,4.5,7.5C54.1,1031.7,54.3,1035.8,52.2,1039.7L52.2,1039.7
			L52.2,1039.7z"/>
		<path id="path62" class="st56" d="M42.3,1054c-1.3,4.7-3.9,8.6-7.5,11.9c-11.6,2.3-23.1,2.4-34.8,1.1v-13.5
			c9.1,0.5,18.3,0.9,27.4,1.6C32.5,1055.4,37.2,1052.9,42.3,1054z"/>
		<path id="path63" class="st57" d="M110.7,835.9c4.2-4.4,9.6-6.5,15.2-8.6c11.9-4.3,24.2-7.3,36.5-10.1c10.6-2.4,21.3-4.4,31.9-6.6
			c5-1,9.8-0.8,14.8,0.2c10.4,2.2,20.4,5.5,30.2,9.5c19.3,7.8,38.9,15.1,58.3,22.8c22.7,9,45.2,18.2,67.9,27.1
			c8.9,3.5,13.5,9.7,14.7,19c1.7,12.4,1.3,24.6-0.7,36.9c-0.8,4.6-2.5,9.1-4.6,13.3c-2.5,4.9-5.9,8.7-11,11c-6.4,3-12.9,5.6-19.5,8
			c-18.2,6.7-37.1,11.1-55.9,15.5c-4.8,1.1-9.7,2.1-14.6,3.2c-0.8-2.5-5-3.3-3.5-7c10.1-5.1,21.3-6.5,32.2-8.7
			c15.6-3.2,30.7-8,45.7-13.3c16.3-5.8,23.8-17.3,23.8-34.2s0.5-15.3-0.9-22.9c-1.3-6.8-4.7-10.3-11.9-10.1
			c-5.3,0.2-10.5,0.8-15.7,2.1c-30.8,7.9-61.7,15.2-91.4,26.5c-18.4-2.9-36-8.4-52.1-18c-6.6-4-13.4-7.1-20.9-9.2
			c-8.9-2.5-16.7-7.3-23.5-13.5c-4.7-4.3-9.3-7.7-16.5-5.1c-4.9,1.8-9-1.3-10.6-5.6c-2.3-6.1-6.8-9.3-11.8-12.5
			C113.4,843.3,109.7,841,110.7,835.9L110.7,835.9L110.7,835.9z"/>
		<path id="path64" class="st58" d="M81,949.2c-24.8,8.4-49.4,3.9-73.7-1.6c-2.4-0.6-4.9-1.1-7.3-1.7v-68.4
			c4.7,2.1,9.4,4.3,14.1,6.5c4.8,2.2,9.3,5,13.8,7.8c11.1,6.7,22.7,12.4,33.1,20s10.8,7.2,15,12.1c3.6,4.2,6.9,8.7,8.7,14.1
			C86.5,943.1,85.6,946.7,81,949.2L81,949.2L81,949.2z"/>
		<path id="path65" class="st59" d="M277.7,651c17.9,4.5,28.2,16.8,34.4,33.3c1.2,3.2,1.7,6.8,2.5,10.2c5.1,12.1,2,23.5-2.6,34.8
			c-1.8,3.7-4.5,6.9-6.3,10.5c-2.1,2.8-3.7,6.2-8,6.1c-11.5,10.7-24.9,17.6-40.3,20.4c-22.2,4-42.1-1.4-59.3-15.7
			c-17.2-14.4-24.3-41.4-16.1-62.7c3.6-9.3,9.2-17,18.2-21.8c6.6-3.5,13.9-1.4,20.8-2.2c4.9-0.5,4.4,3.3,3.7,6.8
			c-0.7,3.2-4.3,7.3-0.5,9.6c4.2,2.5,7.4-2.1,10.7-4.3c1.2-0.8,2.3-1.9,3.1-3.1c4-6.3,9.1-6.4,15.1-3.1c2.8,1.6,5.9,2.7,9.2,3
			c1.7,0.2,3.8,0.7,4.8-1.1c1-1.7-0.4-3.3-1.3-4.8c-4.7-8-2.5-13.2,6.8-15.5C274.2,650.9,275.9,650.5,277.7,651z"/>
		<path id="path66" class="st60" d="M96,0c-2.5,20-20.6,28.1-34.4,39.2C56,43.7,48,44.4,40.4,42.7c-4.6-1.1-9.3-1.6-13.9-2
			C16.1,39.8,7.3,36.1,0,29.8V0H96z"/>
		<path id="path67" class="st61" d="M270.2,972.2h0.8c4.4,0.5,4.5,0.6,2.9,4.9c-1.2,0.2-2.3,0.5-3.5,0.7c-1.1,0.7-2.5,0.4-3.6,1.2
			c-1.1,0.2-2.2,0.4-3.4,0.6c-1.2,0.5-2.6,0.4-3.7,1.1c-3,0.7-6.1,1.1-9.1,0c-1-0.7-2.3-0.6-3.2-1.4c-0.7-0.3-1.4-0.5-2.1-0.8
			c-0.6,0-1.1-0.5-1.4-0.9c-12.2-5.1-23.9-11.3-35.3-18c-14.2-8.3-28.9-15.8-44-22.3c-7.6-3.2-14.9-6.8-22.1-11
			c-8.9-5.2-17.9-10.2-26.8-15.3c-2-1.2-4.1-2.3-6.1-3.5c-6.4-4.1-9.9-9.7-9.8-17.6c0.3-13.2,0.7-26.5,2.4-39.6
			c0.8-6,2.9-11.4,8.5-14.7c2,4,2.4,4.4,5.9,6.8c2.9,2,5.8,4,8.7,5.9c2.5,1.6,3.9,3.3,4.1,6.9c0.3,5.3,6.1,7.8,11.1,5.8
			c1.1-0.4,2.1-1,3.2-1.5c1.4-0.6,2.9-0.6,4.2,0.3c2.9,2,5.8,4,8.4,6.3c7.5,6.8,15.7,12,25.7,14.4c6.6,1.5,12.5,4.9,18.3,8.3
			c6,3.6,12.2,7.1,18.7,9.7c7,2.8,14.6,4.1,21.8,6.5c3.3,1.1,7,0.7,9.8,3.2c-3,8.8-7.1,17.2-7.6,26.7c-0.6,11.9-1,23.9,6.1,34.4
			c0.9,0.8,2,1.4,3.1,1.7c2.8,0.7,5.6,0.4,8.4,0.4s4-0.3,6-0.7c1.5,0,2.7,0.3,3.6,1.3L270.2,972.2L270.2,972.2z"/>
		<path id="path68" class="st62" d="M351.3,1053.6c0,1.2,0-0.3-0.1,0.9c-0.1,3.4-5,15.5-9.9,25.5h-90.2c-4.6-7.6-7.3-16.1-7.2-24.7
			c-0.2-2.2,0.9-4.1,2-5.7c4.6-7.1,9.4-14.1,14.1-21.2c0.2-0.3,0.4-0.5,0.6-0.7c8.8-10.2,29.3-17.3,42.4-14.3
			c6.8,1.5,13.6,3.6,20.2,6s11.7,6.5,15.8,12.1C343.9,1038.3,347.6,1046,351.3,1053.6L351.3,1053.6L351.3,1053.6z"/>
		<path id="path69" class="st63" d="M86.6,664.1c-3.2,3.3-4.5,7.3-5.4,11.8c-2.8,13.6-15.1,20.8-28.1,16c-5.4-2-10.3-1.9-15.4-0.3
			h-6.8c-9.5-1-16.1-6.4-20.3-15.3c-0.6-1.3-1.2-2.7-2-3.9c-0.3-0.5-0.7-1-1.1-1.5c0-0.2-0.3-0.3-0.5-0.5c-0.2,0-0.4-0.3-0.6-0.5
			c0,0-0.3-0.2-0.4-0.3c-0.4-0.3-0.7-0.6-1-1c-1.9-1.6-3.6-3.3-5-5v-54.2c0.9-1,1.9-1.9,3-2.8c7.2-5.7,15.7-9,23.8-13
			c1.8-0.9,4.3-1.6,6-0.6c7.9,4.5,15.8,2.3,23.8,0.5c2.9,0.3,5.9,0,8.7,1.3c6.3,2.5,11.1,6.5,13.6,13c0.5,1.4,1.2,2.7,1.5,4.2
			c0.7,3.2,2.1,5.3,5.7,5.3s1.5,0.9,2.2,1.4c-0.8,1.8-6.2,1-2.5,5.5c2.6,3.2,2.9,7.6,2.2,11.9c-0.5,3.3-0.4,6.5,1.3,9.5
			C93,652.5,91.9,658.6,86.6,664.1L86.6,664.1L86.6,664.1z"/>
		<path id="path70" class="st64" d="M85.1,284.8c-0.2,1.6-0.8,2.6-2.6,2.1c-6.6,1.3-13.2,2.5-19.8,3.8c-19.8,3.9-39.7,7.8-59.5,11.8
			C2.1,302.7,1,303,0,303.2v-61c20.5-4.7,41-9.3,61.5-13.9c0.8-0.7,1.6-0.7,2.5-0.2c4.5,3.9,4.9,9.7,6.6,14.8
			C75.5,256.9,78.2,271.5,85.1,284.8z"/>
		<path id="path71" class="st65" d="M70.8,975.7c-12,7.6-25.5,7-38.5,5.3c-10.8-1.4-21.6-3.1-32.2-5.2v-21.4
			c13.5,1.5,27.1,1.9,40.9,1.3c5-0.2,10-0.4,14.9-1.2c4.3-0.7,8.8-1.7,12.7,1.5c0,3,1.2,5.6,2.4,8.3C72.5,968.1,73.6,972,70.8,975.7
			L70.8,975.7L70.8,975.7z"/>
		<path id="path72" class="st66" d="M46.9,724.7c-7.4,2.9-14.8,5.8-22.1,8.8c-9.3,3.8-16.7,9.8-22.4,18c-0.8,1.2-1.7,2.4-2.5,3.7
			V685c2.5-4.7,4.9-9.5,7.5-14.2c0.4-0.7,0.8-1.5,1.2-2.2c2.3,1.2,2.5,3.6,3.4,5.7c3.8,9.4,10.6,14.8,20.9,15.3
			c-0.3,0.7-0.6,1.3-1,2c-3.9,7.2-10.7,12-14.7,18.4c5.8-1.9,11.1-6.6,17.7-8.5c0.2,0,0.4,0,0.6-0.2H36
			C42.2,708.1,51.2,713.4,46.9,724.7L46.9,724.7L46.9,724.7z"/>
		<path id="path73" class="st67" d="M0,631.6v-7.1C1.3,626.9,1.2,629.1,0,631.6z"/>
		<path id="path74" class="st67" d="M7,668.6c-0.2,0.5-0.3,1-0.5,1.4c-1.5,3.5-3.8,5.2-6.5,5.5v-15.6c0.8,1.2,1.6,2.3,2.6,3.3
			C4.2,664.9,5.5,666.8,7,668.6L7,668.6L7,668.6z"/>
		<path id="path75" class="st67" d="M56.6,593.6c-2.9,3.2-7.2,3.6-10.8,5.4c-1.1,0.6-2.9,0-4.3,0c-1.1-0.2-2.3-0.8-3.2-1.4
			c-6.4-4.4-12.3-2.3-17.6,1.7c-2.7,1.9-5.3,3.2-8.4,4.3c-4.4,1.5-8.3,4.3-11.2,8.1c-0.4,0.5-0.8,1-1.1,1.5V578
			c6.8-3.8,15.6-3.2,20.9,1.7c2.1,1.9,3.8,1.8,6.3,1c12.1-3.9,19.1-1.6,26.8,8.6C55,590.6,55.7,592.2,56.6,593.6L56.6,593.6
			L56.6,593.6z"/>
		<path id="path76" class="st68" d="M64,131.5c-3.7,14.5-6.8,29.1-11.1,43.4c-0.9,2.2-1.5,4.5-3.8,5.9c-16.4,4-32.7,8.1-49,12.1
			v-51.8c19.4-5.4,38.8-10.8,58.2-16.2c1.7-0.5,3.4-0.6,5.2-0.9C65.4,126.3,64.6,129,64,131.5z"/>
		<path id="path77" class="st69" d="M46.9,724.7c-0.3-1.1-0.8-2.3-0.8-3.4c0.3-5.1-1.7-8.7-5.7-12c-2.1-1.7-3.2-4.8-4.7-7.3
			c-2.8-1-2.3-3.3-2.3-5.5c0.2-1.7,0.8-3.3,1.6-4.8c0.4-0.7,0.8-1.4,1.3-2.1c3.3-1.1,6.7-3,10-2.9c3,0,5.8,2.9,8.8,3.7
			c5.9,1.7,11.6,1.2,16.5-3.1c4.8-4.3,8.4-9,7.7-16c-0.2-2.2,0.7-3.7,2.4-5.3c2.5-2.4,4.5-5.3,6.8-8c1.7-2,1.8-4.3,0.8-6.6
			c-0.8-1.9-1.7-3.7-2.7-5.6c-1.8-3.2-2.7-6.5-0.9-10.1c1.1-2.2,0.5-4.5-0.4-6.8c-1.2-3-2.1-6.1-3.1-9c1.9-1.8,4.1-0.8,6-1.2
			c13.8,5.6,20.2,17.2,16.8,31.5c-0.9,3.9-0.7,6.5,2.3,9.2s5.1,6.4,6.8,10.2c2,4.4,3,9,1.7,13.7c-0.7,2.5-0.4,4.3,1,6.5
			c5.5,8.5,4.4,15.2-3.1,21.6c-1.1,0.9-2.3,1.9-3.6,2.5c-1.9,0.8-2.6,2.2-2.6,4.1c0,3-1.2,5.8-2.5,8.4c-4.2,8.3-15.1,13.6-24.6,7.3
			c-0.7-0.5-1.5-0.9-2.2-1.5c-2.2-2-4.3-2.2-7.1-0.6c-7.5,4.1-13.9,3.2-20.2-2.2C49.5,727.9,48.3,726.2,46.9,724.7L46.9,724.7
			L46.9,724.7z"/>
		<path id="path78" class="st70" d="M297.6,746c2.1-2.4,4.3-4.8,6.4-7.1c10.4-8,15.4-7.8,36.2,1.4c-1.9-2.7-5-3.2-7.4-4.8
			c-6.2-3.9-6-6,0.6-9.6c10.1-5.6,20.5-8.6,32.5-2.7c-1.4-4-7-3.6-5.2-7.7c2.1-4.8,7.5-5.1,10-6.5c-14.7,4.7-15.1,4.6-16.1-6
			c-3.3,12.8-12.1,17.6-21.8,21c-8,2.8-9.8,1.1-8.2-7c0.5-2.5,1.8-4.7,1.9-7.6c-2,4.6-2.8,9.4-5.1,13.5c-2.5,4.6-5.1,9.6-12,7
			c5.1-11.4,5.6-23.4,5.1-35.5c3-0.8,4.9-3.1,7.2-4.9c2.1-1.6,4.2-3.3,6.4-4.6c2.8-1.6,5.7-3.9,8.9-3.4c3.8,0.6,2.2,5.7,5.1,7.9
			c5.8-4.1,12.8-5.5,19.7-6.7c2.7-0.5,3.7,0.4,4.6,2.9c0.6,1.9-0.2,4.2,1.8,6.4c6.9-1.3,14.1-1.1,21.2,1c9.9,2.9,10.6,4.2,5.7,13.2
			c-2.7,5-6.3,9.2-10.1,13.4c-1.2,1.3-2.4,2.5-3.5,3.6c0.1,0.7,0.1,1,0.3,1.2c5.8,7.3,5.7,7.4-2.1,12c-5.1,3-10.7,4.7-16.3,6.2
			c0.1,0.9,0,1.5,0.2,1.9c4.4,8,3.9,9-4.7,10.9c-4.7,1-9.4,0.8-14.1,0.8s-3.8,0.2-3.1,3.9c0.1,0.3,0.2,0.6,0.3,0.8
			c0.5,1.8-0.3,2.9-2,3.1c-13.9,1.6-26.3-2-36.6-11.6C301.5,750.5,299.6,748.2,297.6,746L297.6,746L297.6,746z"/>
		<path id="path79" class="st71" d="M70.8,975.7c-3.1,4.4-8,5.8-12.8,7c-8,2-16.1,2.9-24.4,3.3c-6.2,0.3-12.3,0.3-18.5,0.5
			c-1.7,0-3.6,0-4.9,1.4c-3.3-1.4-6.7-1.9-10.2-2.2v-12.2c3,0.6,6,1.2,9,1.8c8.6,1.7,17.4,3.1,26.1,3.7
			C47.1,979.9,59.2,980,70.8,975.7z"/>
		<path id="path80" class="st72" d="M81,949.2c-3.8,3-8.3,4.6-12.5,6.8c-5.3,0.2-10.5,1-15.8,1.3c-16.7,1.3-33.6,1.9-50.3,0.2
			c-0.8,0-1.7-0.2-2.5-0.3v-13.8c1.6,0.4,3.3,0.8,4.9,1.1c17.5,4,35.1,7,53.2,6.6c6.8-0.2,13.5-0.2,19.9-3
			C79.3,947.8,80.3,948.1,81,949.2L81,949.2L81,949.2z"/>
		<path id="path81" class="st73" d="M95.2,445.6c-11.6,20.3-29.4,32.9-51.3,40.3c-2.9,1-6.2,2.6-8.7-1.1c-0.6-2.9-1.4-5.7-1.9-8.6
			c-0.5-2.8-0.6-5.7-0.9-8.9c-2.8,0.8-5,1.4-7.2,2.1C17,472,8.5,472.8,0,472.7v-48c0.2-0.1,0.4-0.1,0.6-0.2
			c9.2-2.1,7.9-3.3,10.9-11.9c0.8-2.2,1.4-4.5,2.4-6.6c1.3-2.7,3.9-3.4,6.7-2c2.9,1.5,5.3,3.7,7.4,6.2c3.5,4,6.3,8.5,8.6,13.3
			c2.6,5.6,5.1,11.2,7.7,16.8c1.2,5.6-4.1,8.8-5.2,13.6c-0.5,2.2-2.3,4.7-0.5,6.7c2,2.2,4.4,0.1,6.4-0.8
			c12.4-5.2,21.3-14.4,29.2-24.8c2-2.6,3.5-5.5,6.8-6.6h2.1c1,0.5,2,0.5,3.1,0.7c4.2,1,8.4,1.9,12.5,2.8
			C101.3,437.4,97.5,441.6,95.2,445.6z"/>
		<path id="path82" class="st74" d="M84.6,284.9c-2.4,0-3.7-1.6-4.4-3.6c-1.6-4.7-3-9.4-4.5-14.1c-4.1-13-8.3-25.9-12.4-38.9
			c-0.4-0.4-0.6-0.8-0.4-1.2c0-0.4,0.3-0.6,0.4-0.6l0,0c1-2.7,3.3-4,5.6-5.3c14.6-8.6,28.9-17.6,43.1-26.7c2.7-1.8,5.7-4.8,9.3-1.2
			c5.2,16.7,10.5,33.4,15.7,50.1c0.4,1.4,0.4,2.9,0.6,4.3c-3.9,7.8-12.1,10.7-18.4,15.8c-8.4,6.9-17.7,12.4-26.7,18.4
			C90.2,283.6,88,285.9,84.6,284.9z"/>
		<path id="path83" class="st75" d="M142.6,477.1c0.3,2.6,0.6,5.3,1,7.9c0.3,2.3,1.2,2.7,3.7,2.3c8.1-1.4,16.2-2.8,24.3-4
			c4.7-0.7,9.4-0.5,13.9,1.4c5.6,2.3,7,6.2,3.8,11.2c-1.9,3-4.3,5.5-6.7,8.2c-1.9,2.1-3,4.3-1.7,7.2c0.6,1.3,0.8,2.8,1.1,4.3
			c1.6,6.9-0.2,11.2-6.3,14.8c-1.7,1-3.7,1.7-5.7,2.3c-3.2,0.9-4.9,3-5.5,6.2c-0.7,3.5-1.1,7-2.2,10.3c-1.5,4.6-4.9,5.8-8.9,3
			c-2.1-1.5-4.1-3.4-5.8-5.4c-7.5-8.5-12.7-18.3-16.5-29.6c-4.2,2.3-8.3,4.5-12.3,6.6c-4.2,2.3-8.9,3-13.5,3.7
			c-4.5,0.3-8.9,0.5-13.3,0c-0.7-0.2-1.4-0.4-2.1-0.5c-0.6-3.6,2.5-4.2,4.6-5.5c17.4-10.2,32.6-22.5,41.4-41.4
			c1.1-2.2,2.3-6.9,6.7-2.9l0,0L142.6,477.1z"/>
		<path id="path84" class="st76" d="M110,14.3c0.7,15.6-7,26.1-20.5,33.1c-1.3,0.7-2.7,1.2-4.1,1.6c-8.5,2.4-16.6,5.6-24.2,10.3
			c-7.5,4.6-15.9,4.5-23.6,0.4c-7.5-4.1-15.3-7.3-23.5-9.8C7.8,47.8,3.2,43.6,0,38.1V26.8c0.8,0.6,1.5,1.2,2.3,1.8
			c3.8,3.5,8.4,5.3,12.9,7.5c1,0.5,2.3,1.2,3.3,1.1c6-0.6,11.5,2.3,17.5,2c0.9,0,1.8,0,2.6,0.3c8.1,3.6,15.5,0,23-2.3
			c1.1-0.3,2.2-1.1,2.9-1.9c7.2-7.4,15.8-13.2,22.8-20.7c4-4.3,6.7-8.7,6.2-14.6h18.2C110.3,4.7,109.8,9.3,110,14.3z"/>
		<path id="path85" class="st77" d="M121.3,193.3c-2.6-0.8-4.4,0.5-6.4,1.8c-8.1,5.2-16.1,10.6-24.3,15.5
			c-9,5.4-17.7,11.4-27.2,15.9c-1.5-4.1-3.2-8.1-4.4-12.3c-3.4-11.1-6.6-22.3-9.9-33.4c0.3-2,0-4.2,1.9-5.6c2.7,0.3,5.2-0.6,7.5-2
			c15.2-9.3,31.2-17.4,45.6-27.9c1.6,0.7,1.7,2.2,2.2,3.5c3.7,11.4,7.8,22.6,10.9,34.1C118,186.5,119.9,189.9,121.3,193.3
			L121.3,193.3L121.3,193.3z"/>
		<path id="path86" class="st78" d="M84.6,284.9c15.6-10.8,31.2-21.6,46.8-32.4c2.2-1.5,4.2-3.2,6.3-4.8c-0.1,3.6,1.5,6.8,2.5,10.2
			c3,9.8,6.1,19.6,9.2,29.3c0.6,1.9,0.2,3.4-1.4,4.6c-3.9,3.1-7.8,6.2-11.7,9.3c-11.9,9.5-23.8,19-35.7,28.5
			c-0.7,0.5-1.3,1.2-2.1,1.6c-1.1,0.6-2.4,0.7-2.9-0.7c-4.3-13.1-8.5-26.2-12.6-39.3c-0.4-1.4-0.4-2.9-0.6-4.4
			C83.2,286.3,83.9,285.6,84.6,284.9z"/>
		<path id="path87" class="st79" d="M249.5,1073.4c0.8,2.3,1.8,4.5,3.1,6.5h-8.5c-0.3-1.3-0.7-2.6-1-4c-2.1-7-1.9-13.9,0.8-20.7
			c0.5,0.7,1.4,1.4,1.4,2.1C245.3,1063.1,247.7,1068.2,249.5,1073.4z"/>
		<path id="path88" class="st79" d="M355.6,1071.6c-1.1,2.7-2,5.5-2.8,8.3h-15.3c0.3-3.2,1.5-6.1,3.9-8.1c4.5-3.9,6.5-9,8.1-14.3
			c0.4-1.4,0.5-2.9,1.8-3.9c1.2,2,2.6,3.9,3.6,6C356.7,1063.5,357.3,1067.5,355.6,1071.6L355.6,1071.6L355.6,1071.6z"/>
		<path id="path89" class="st80" d="M277.7,651c-5.1,3.2-10.7,4.7-16.6,5.1c-0.8,2.9,1.5,3.8,2.8,5.1c3.2,3.2,5.6,6.8,7,11.1
			c0.5,1.6-0.4,2.8-2.1,3.1c-5.8,0.9-11-0.9-16.2-3c-2.6-1.1-4.8-4-8-3c-2.6,0.8-3.8,3.6-5.5,5.6c-2.5,2.9-5.6,5.3-8.9,7.2
			c-1.5,0.9-3.2,1.6-4.9,2.1c-3.8,1.1-6.7-1.4-5.9-5.2c0.5-2.6,1.6-5,2.4-7.5c0.5-1.4,1.2-2.7,1.6-4.1c0.2-0.9-0.7-1.9-1.4-1.7
			c-7.3,2.1-14.6,0.6-22,0.5c-0.1-2.6-3.3-3.3-3.7-6.3c5.1-1.9,9.6-5.1,14.2-8.2c4.5-3,9.5-4.5,15-4.5h8.4c-0.8-3.5-2.9-6.1-4.9-8.8
			c-1.4-1.9-3-3.6-4.4-5.5c-1-1.3-1-2.7,0.4-3.9c0.9-0.7,1.9-1.5,2.9-2c3-1.6,4.9-1.3,6.9,1.3c2.4,3,4.2,6.4,5.6,10
			c0.8,1.9,1.5,3.8,2.4,5.7c0.5,1,1.6,2,2.9,1.2c11.2-6.5,22.8-3.2,34.3-1.6C281,646.8,277.7,648.3,277.7,651L277.7,651L277.7,651z"
			/>
		<path id="path90" class="st81" d="M169,1078c0.6,0.7,1.2,1.3,1.8,2h-42.6c-0.2-0.9-1-1.4-2.3-1.4c-6.3,0-12.1-2.1-17.9-4
			c-0.4-1.1-0.8-2.1-1.3-3.2c-1.1-2.6-1-3.3,1.3-3.6c3.5-0.6,6.7-2,9.9-3.3c7.6-3.2,15.4-5.4,23.6-2c0.4,0.2,1,0,1.6-0.2
			c0.4-3.4-1.5-6.1-3-8.9c-1.3-2.6-2.8-5.1-4.2-7.6c7.6-6.4,10-5.9,13.5,2.4c1,2.4,1.7,5,2.3,7.5c0.5,2.3,0.6,4.6,0.9,6.9
			c3.6,0.7,6.3-1.4,9.3-2.2c3.2-0.8,6.2-1.1,9.4-0.2c6.2,1.7,12.5,2.9,18.6,4.3c0.9,4-3.6,5.2-4,8.4c-5.2,0.6-10.5,1.2-15.7,1.8
			C168.6,1074.9,167.8,1076.8,169,1078L169,1078L169,1078z"/>
		<path id="path91" class="st82" d="M65.2,518.5c-6.6-4-13.1-8.2-17.9-14.4c-0.2-4.4,3.7-3.9,6.1-4.7c26.7-8.5,44.9-26.3,57.3-50.8
			c1.4-2.7,1.6-6.5,5.6-7.2c5.4,3.7,10.7,7.5,14.4,13.1c0.2,12.5-7.8,21.4-14.7,30.2c-11.2,14.3-25.5,25.2-42.4,32.4
			C70.9,518.3,68.3,519.6,65.2,518.5L65.2,518.5L65.2,518.5z"/>
		<path id="path92" class="st83" d="M116.3,441.4c-2.2,4.7-4.1,9.7-6.7,14.2c-13.1,22.6-31.3,39-56.8,46.2c-1.9,0.6-4.1,0.5-5.5,2.3
			c-5.5-5.5-9.8-11.8-12.1-19.3c2.7,1.1,5.3,0.3,7.7-0.6c16-5.8,30.4-14.1,41.7-27.1c6.4-7.4,11.5-15.5,14-25.2
			C104.8,434.6,111.3,436.7,116.3,441.4z"/>
		<path id="path93" class="st84" d="M65.2,518.5c7.1-3.5,14.5-6.4,21.1-10.5c19.9-12.3,35.1-28.8,43.1-51.2c0.3-0.8,0.9-1.5,1.3-2.3
			c3.6,2,5.1,5.4,6.9,8.8c2.3,4.4,4.5,8.8,5,13.8c-1-0.3-2.2-1.3-3,0.1c-0.7,1.2-1.3,2.6-1.8,4c-5.9,13.9-16.2,24.1-28,33.1
			c-4.9,3.7-10.1,7-15.7,9.6c-1.5,0.7-3.4,1.1-4.1,3C81.1,525.8,72.7,523.6,65.2,518.5L65.2,518.5L65.2,518.5z"/>
		<path id="path94" class="st85" d="M104,145.3c0,2.3-1.1,3.8-3,5c-4,2.4-8,4.9-12,7.3c-11.1,6.6-22.2,13.1-33.2,19.6
			c-0.5,0.3-1,0.6-1.6,0.7c-2.6,0.9-2.9-1-3.3-2.7c2.7-11.1,5.4-22.2,8-33.3c1.4-6,2.9-11.9,4.4-17.9c0.9,0,1.8,0,2.6,0.3
			C78.9,130.8,91.7,137.6,104,145.3L104,145.3L104,145.3z"/>
		<path id="path95" class="st86" d="M81,428.3c-1,1.4-2.1,2.8-3,4.3c-8.8,15.4-21.8,25.7-38.4,31.7c-0.5,0.2-1.1,0.4-1.7,0.5
			c-1.6,0.4-2.9-0.7-2.9-2.3c0-5.4,1.9-10.3,4.5-14.9c1.5-2.5,3.1-4.9,4.7-7.4c8.1-6,17.3-9.6,27.1-11.8
			C74.6,427.7,77.8,427.8,81,428.3L81,428.3L81,428.3z"/>
		<path id="path96" class="st84" d="M92.1,527.5c4.5-0.4,8.9-0.5,13.4,0C101,529.1,96.5,529.2,92.1,527.5z"/>
		<path id="path97" class="st86" d="M86.1,429.1c-1.2,0.5-2.2,0.3-3.1-0.7C84.2,427.9,85.3,428,86.1,429.1z"/>
		<path id="path98" class="st57" d="M259.8,980.7c1-1.3,2.3-1.5,3.7-1.1C262.5,980.9,261.2,981,259.8,980.7z"/>
		<path id="path99" class="st57" d="M247.5,979.4c1.4-0.2,2.5,0,3.2,1.4C249.3,981.1,248.2,980.5,247.5,979.4z"/>
		<path id="path100" class="st57" d="M266.9,979c0.9-1.3,2.1-1.6,3.6-1.2C269.5,979.1,268.3,979.3,266.9,979z"/>
		<path id="path102" class="st57" d="M243.9,977.7c0.5,0.3,1,0.6,1.4,1C244.6,978.7,244.1,978.4,243.9,977.7z"/>
		<path id="path103" class="st87" d="M249,972.4c-4.8-2.4-6-7.1-6.8-11.6c-0.7-4.3-1.3-8.6-1.7-13c-0.9-9.9,0.6-19.8,3.7-29.2
			c1.2-3.8,2.8-7.7,6.5-10.1c11.7-5.5,23.8-9.6,36.3-13c20-5.4,40.1-10.8,60.3-15.8c5.6-1.4,11.1-1.2,16.6-0.9
			c4.6,0.2,7.5,3.4,8.6,7.6c1.1,4.2,2.4,8.4,2.1,12.9c-0.3,5.6,0.2,11.2-0.2,16.7c-0.5,7.6-2,15-6.4,21.6c-1.3,2-2.9,3.6-4.8,5
			c-4.6,3.3-9.5,6-14.7,7.9c-17.3,6.5-35,11.5-53.2,14.7c-8,1.4-15.9,3.8-23.9,5.7c-0.5,0-0.9,0.7-1.3,1.1c-1.2,0-2.3,0-3.5,0.2
			c-1.5,1.5-3.9,0-5.3,1.7h-10.6C250.3,973.4,249.6,972.9,249,972.4L249,972.4L249,972.4z"/>
		<path id="path104" class="st88" d="M204.8,832.6c3.7-0.4,7,0.6,10,2.6c1,0.6,1.8,1.5,1.7,2.9c-0.1,1.7-1.3,2.7-2.8,3
			c-2.3,0.4-4.7,0.7-7,0.5c-6.7-0.4-12.8,0.4-17.7,5.6c-1.6,1.7-3.9,2.7-6.3,2.9c-1.5,0-2.8-0.6-3.6-2c-0.7-1.2-0.4-2.3,0.4-3.2
			C186.2,836.9,194.8,833.3,204.8,832.6L204.8,832.6L204.8,832.6z"/>
		<path id="path105" class="st89" d="M252.8,869.7c-4.3,0.4-8.4-0.7-11.9-3.7c-1.9-1.7-1.8-3.5,0.3-5c0.5-0.3,0.9-0.8,1.4-1
			c5.4-2.5,14.4-0.8,18.6,3.6c1.3,1.3,1,2.5-0.1,3.8C258.9,869.8,256,869.9,252.8,869.7L252.8,869.7L252.8,869.7z"/>
		<path id="path106" class="st90" d="M255.4,850.2h-5.3c-2.4-0.2-4.1-1.7-4.3-3.7c-0.2-2.2,1.3-3.3,2.9-3.9c5.5-2,10.9-1.8,15.9,1.6
			c0.6,0.4,1.2,1.4,1.3,2.1c0.1,1.3-1,1.9-2,2.6C261.3,850.5,258.3,850.3,255.4,850.2L255.4,850.2L255.4,850.2z"/>
		<path id="path107" class="st91" d="M211.8,862.7c-4.2,0-6.5-1.4-6.7-4c-0.2-2.3,1.3-3.9,4.7-5.5c4.3-2,7.9-0.5,11.2,2.1
			c1.4,1.1,1.2,3.3-0.4,4.5C217.8,862,215.6,862.7,211.8,862.7z"/>
		<path id="path108" class="st92" d="M159.4,839.6c3.1,0.2,6.4-0.6,9.2,1.9c2,1.7,2,3.5-0.1,4.9c-5.8,3.8-11.2,1.8-16.5-0.9
			c-0.6-0.3-1-1.4-1.2-2.2c-0.2-1.3,0.8-2.2,1.8-2.8C154.6,839.2,157,839.8,159.4,839.6z"/>
		<path id="path109" class="st93" d="M289.2,880.4h-1.7c-3,0-5.9-0.5-7.4-3.4c-1-1.8,2.8-4.7,6.8-5.4c3.9-0.6,7.5,0,10.8,2.2
			c1.7,1.1,1.9,3,0.4,4.3c-1.3,1.2-2.8,2.1-4.6,2.2c-1.4,0-2.9,0-4.3,0l0,0l0,0L289.2,880.4z"/>
		<path id="path110" class="st94" d="M316.7,866.3c-2.4,0-4.7-0.2-6.8-1.3c-1.2-0.6-2.9-0.4-3.5-2.1c-0.4-1.2,1.3-4,3.3-4.6
			c1.3-0.5,2.9-0.8,4.2-0.5c2.9,0.5,5.6,1.8,7.6,4.1c0.7,0.9,1.7,1.9,0.8,3.1c-0.4,0.6-1.3,1.1-2.1,1.2L316.7,866.3L316.7,866.3z"/>
		<path id="path111" class="st95" d="M27.3,927.8c-4,0.4-8,2.4-12.1,0.5c-0.5-0.2-1.2-0.2-1.8-0.2c-4.5,0-9-0.3-13.4-0.9v-30
			c1.1,0.6,2.3,1.2,3.4,1.9c8.7,4.9,17.3,10,24.4,17.3c1,1,2.1,2.1,2.9,3.3C32.8,923,31.2,927.4,27.3,927.8L27.3,927.8L27.3,927.8z"
			/>
		<path id="path112" class="st96" d="M309.5,730c6.2-1,9.9-4.6,11.2-10.7c0.6-2.8,1.7-5.6,2.7-8.3c0.7-1.9,1.7-3.7,2.7-5.5
			c0.6-1.1,1.9-1.6,3-0.9c0.6,0.3,0.8,1.5,0.8,2.3s-0.5,1.7-0.8,2.5c-1.3,4.5-2.5,9-3.9,13.9c3.9,0.9,7-1,10.1-2.3
			c3.8-1.5,7.2-3.8,10.7-6c2-1.3,3.1-3.3,3.9-5.6c1.2-3.6,2.4-7.3,5.3-10c0.7-0.7,1.7-0.6,2.4,0c0.4,0.3,0.7,1,0.7,1.5
			c-0.1,3.1-2.6,5.8-1.6,9.7c6.7-1.6,13.4-3.1,21.8-5.1c-5.8,5.6-12.3,6.6-16.9,10.5c0.3,2.6,2.7,1.8,4,2.7c1.2,0.8,2.8,1,4,1.7
			c0.6,0.4,1,1.6,0.8,2.3c-0.1,0.7-0.9,1.7-1.6,1.8c-3.2,0.7-6.5,0.6-9.5-0.9c-6.4-3.4-12.5-1.6-18.5,1.2c-3.2,1.5-6.5,2.7-9.7,4.2
			c-0.7,0.3-1.2,1.2-2.1,2.2c3.9,2,7.5,4,11.1,5.8c2.2,1.1,4.1,2.4,5.1,4.6c0.2,0.5,0.2,1.2-0.1,1.6c-0.3,0.4-1,0.8-1.5,0.8
			c-1.1,0-2.3-0.3-3.3-0.8c-2.9-1.3-5.8-2.8-8.7-4.2c-8.3-4-16.7-5.4-25.2-0.6c-0.7,0.4-1.7,0.4-2.6,0.5
			C305.2,735.5,307.5,732.8,309.5,730z"/>
		<path id="path113" class="st97" d="M213.7,695.4c0.1,7.6-3.7,12.6-10.3,15.9c-2.4,1.2-4.4,1-6.5-0.7c-4.4-3.7-6.6-8.5-5.8-13.9
			c0.9-6.4,4.4-11.4,10.9-13.6c1-0.3,2.4-0.4,3.4,0c4.4,1.6,8.2,7.5,8.3,12.4l0,0L213.7,695.4z"/>
		<path id="path114" class="st98" d="M167.5,919.9c0,1.7-0.7,3-2,3.8c-1.9,1.2-4.1,1.3-5.9,0c-3.9-2.7-7.2-6-8.8-10.7
			c-0.5-1.6,0.6-3.7,2.3-4.2c0.6-0.2,1.1-0.3,1.7-0.4c5.7,0,12.2,6,12.7,11.4l0,0V919.9z"/>
		<path id="path115" class="st99" d="M229.6,953.9c0,2.8-1.2,4.9-3.4,5.6c-2.4,0.7-4.6,0.4-6.4-1.5c-3.7-3.8-5.2-8.4-2.8-11.7
			c1.3-1.8,3.2-2.7,5.2-2.2C226.2,945.2,229.6,949.8,229.6,953.9L229.6,953.9L229.6,953.9z"/>
		<path id="path116" class="st100" d="M220.7,922.7v-2.6c0.1-1.5,0.1-3,1.5-3.9c1.5-0.9,4.1-0.6,5.8,0.8c2.7,2.1,4.1,5,4.8,8.2
			c0.5,2.1-0.1,4.2-2,5.5c-1.8,1.3-3.9,1.3-5.9,0.2C221.6,928.9,220.2,925.8,220.7,922.7L220.7,922.7L220.7,922.7z"/>
		<path id="path117" class="st101" d="M116.2,857.5c1.5,0,2.8,0.3,4,1.3c2.6,2.1,4.1,4.9,4.9,8c0.3,1.4,0.3,3-1.1,4
			c-1.2,0.9-2.8,0.9-4.2,0.4c-3.9-1.5-7.3-7.1-6.8-11.2C113.3,858.3,114.6,857.6,116.2,857.5z"/>
		<path id="path118" class="st102" d="M192.3,917.3c-3.9-0.3-7.1-3.8-6.9-7.6c0.2-3.6,4-5.8,6.9-3.7c1.6,1.2,3,2.7,4.3,4.3
			c1.2,1.5,1.3,3.2,0.2,4.8C195.7,916.8,194.1,917.4,192.3,917.3z"/>
		<path id="path119" class="st57" d="M261.4,974c1.3-2,3.3-1.8,5.3-1.7C265.4,974.3,263.4,974,261.4,974z"/>
		<path id="path120" class="st57" d="M249,972.4c0.6,0.5,1.2,1,1.9,1.5C250.2,973.5,249.6,972.9,249,972.4z"/>
		<path id="path121" class="st63" d="M35.6,694.6c-0.3-1.4,0-2.6,1.1-3.7C36.9,692.4,36.7,693.7,35.6,694.6z"/>
		<path id="path122" class="st103" d="M142.9,1062.3c0.2,0.2,0.5,0.3,0.7,0.5C143.2,1063.3,143,1063.1,142.9,1062.3
			C143.1,1062.3,142.9,1062.3,142.9,1062.3z"/>
		<path id="path123" class="st104" d="M331,922.7c-4.6,0-5.9-1.4-6-4.2c-0.1-3.3,1.5-5.6,4.1-7.2c3.4-2.3,7.4-3.3,11.3-4.2
			c0.8-0.2,1.7,0,2.6,0.2c2.6,0.6,4,4.1,2.4,6.3C341.4,919,335.8,921.6,331,922.7L331,922.7L331,922.7z"/>
		<path id="path124" class="st105" d="M291.3,916.5c0.6,4.7-4.7,11.6-8.3,12.9c-1.3,0.5-2.9,0.2-4.3,0c-1.5-0.2-2.5-1.9-2.1-3.2
			c1.5-4.2,3.7-7.9,7.2-10.7c1.5-1.2,3.1-1.7,4.9-1.4C290.3,914.4,291.3,915.3,291.3,916.5L291.3,916.5L291.3,916.5z"/>
		<path id="path125" class="st106" d="M267.9,932.9c-0.2,0.8-0.1,1.5-0.4,1.9c-2.9,4.2-6.5,7.4-11.7,8.4c-1.6,0.3-2.9,0-3.9-1.2
			s-1.3-2.7-0.4-4.1c2.6-4.1,6.1-7,11-8c1.4-0.3,3,0,4.1,1C267.1,931.6,267.5,932.3,267.9,932.9L267.9,932.9L267.9,932.9z"/>
		<path id="path126" class="st107" d="M303.3,958.1h-1.7c-2.3-0.3-3.5-2.6-2.4-4.4c2.2-3.6,5.4-6,9.3-7.4c2.6-1,7,2,7.1,4.7
			c0,0.8-0.4,1.7-0.9,2.3C311.8,956.8,308,958.6,303.3,958.1L303.3,958.1L303.3,958.1z"/>
		<path id="path127" class="st108" d="M259.5,965.2c-2.2,0-3.6,0-4.8-1s-2.1-2.3-1.1-3.7c2.5-3.6,5.5-6.7,9.7-8.4
			c1.9-0.8,3.3-0.2,4.7,1c1.5,1.4,1.7,3,0.7,4.6C266.3,961.5,263.8,965,259.5,965.2L259.5,965.2L259.5,965.2z"/>
		<path id="path128" class="st109" d="M314,899.8c2.7,0,5.4,0,6.8,2.8c0.9,1.9-1.2,4.4-5,6.2c-4.7,2.3-7.1,2-10.3-1.3
			c-1.4-1.5-1.5-3.2-0.2-4.6C307.8,900.1,309,899.7,314,899.8L314,899.8L314,899.8z"/>
		<path id="path129" class="st110" d="M273.6,914.7c-0.2,0.6-0.2,1.5-0.7,2.2c-2.8,3.9-10.9,5-15.1,2.1c-1.1-0.8-1.3-2-0.6-3.1
			c2.9-4.2,8.5-6.4,13.1-5.2C272.1,911.2,273.3,912.4,273.6,914.7L273.6,914.7L273.6,914.7z"/>
		<path id="path130" class="st111" d="M367.6,889.5c-0.3,0.9-0.4,2.2-1.1,3c-1.9,2.5-4,5-6.8,6.6c-1.6,0.9-3.3,0.6-4.8-0.7
			c-1.2-1.2-1.2-2.5-0.6-3.9c1.6-3.9,4.6-6.7,7.7-9.2c1.7-1.4,4.2-0.6,4.9,1.5C367.2,887.6,367.3,888.4,367.6,889.5L367.6,889.5
			L367.6,889.5z"/>
		<path id="path131" class="st112" d="M329.7,945.7c-0.5-0.2-1.4-0.4-2.2-0.7c-1.6-0.7-2.3-3-1.3-4.4c2.2-3.2,5.2-5.5,8.9-6.7
			c1.8-0.6,3.5,0,4.7,1.4c1.4,1.6,1.2,3.7-0.2,5.6C336.5,944.7,333.9,946.1,329.7,945.7L329.7,945.7L329.7,945.7z"/>
		<path id="path132" class="st113" d="M290.3,936.9c2.8-0.3,5.1,0.7,6.6,3.1c0.4,0.6,0.5,1.8,0.1,2.3c-2.5,3.6-8.5,6.3-13.1,4.8
			c-2.5-0.8-3.4-3.5-1.7-5.5C284.5,939.3,286.5,936.7,290.3,936.9L290.3,936.9L290.3,936.9z"/>
		<path id="path133" class="st114" d="M359.5,917.3c-2.8-0.3-4.2-2.7-3.6-4.6c1.7-4.8,5.2-7.7,10-8.9c1.5-0.4,2.9,0.2,3.9,1.4
			c1.1,1.3,0.9,2.8-0.3,3.9c-2.4,2.5-4.9,5-7.5,7.3C361.2,917.1,359.9,917.1,359.5,917.3L359.5,917.3L359.5,917.3z"/>
		<path id="path134" class="st115" d="M1896.6,949.2c7.6-4.5,15.4-8.6,23.4-12.4v53.9h-32.1c-4.5,0-8.2-3.3-12.8-2.4
			c-0.3,0-0.6-0.2-0.8-0.4c-8.4-5.3-7.7-11.4-1.5-19.2C1879.3,960.6,1887.7,954.6,1896.6,949.2L1896.6,949.2L1896.6,949.2z"/>
		<path id="path135" class="st116" d="M1910.6,993.4c3.2,0.5,6.3,0.9,9.4,1.2v24.6c-12.6,0.3-25.1-0.7-37.4-4.8
			c-2.8-1.2-3.7-3.7-3.8-6.4c0-2.9-0.6-5.9,1.8-8.3c2.1-2.1,4.1-4.4,3.3-7.7c2.4-0.9,4.9-1.3,7.3-1.4h2.5
			C1899.4,990.8,1905.1,992.6,1910.6,993.4L1910.6,993.4L1910.6,993.4z"/>
		<path id="path136" class="st117" d="M1898,595.3c7.2,4.1,14.5,7.6,22,10.8v89.7c-17-5.1-33.6-11.1-49.3-19.7l-0.6-0.3
			c-0.2,0-0.5-0.2-0.7-0.4c-3.3-1.7-6.5-3.6-8.2-7.3c-0.7-2.3-0.3-4.7,0.2-7c5.4-23.5,12.6-46.4,24.8-67.4l0,0
			c3.8-2.3,7.2-0.4,10.6,0.9l0,0c0.4,0.3,0.7,0.5,1.1,0.6l0,0L1898,595.3z"/>
		<path id="path137" class="st118" d="M1790.3,191.1c1.6-2.1,3-4.3,4.7-6.2c6.4-7.3,14.2-11,24.1-8.6c2,0.5,4,0.4,6,0.6
			c6.3-3.3,12.1-0.4,17.7,1.9c3.8,1.6,7.3,3.7,11.7,3.4c7.9-0.5,13.5,3.5,17.2,10.1c2.2,4,5.4,6.7,9.2,9.2
			c14.4,9.3,16.5,23.1,5.2,35.6c-4.7,5.2-5.1,10.9-5.5,17.1c0,0.9-0.4,1.8-0.7,2.7c-5.2,13.4-16.3,17.2-29.3,17.9
			c-1.4,0.1-2.8,0.1-4.2,0.3c-4,1.2-7.7,3.1-11.7,4c-8.6,2.1-16.4,1.1-22.8-5.6c-4.2-4.4-9-7-15.2-8.2c-9.3-1.7-15.3-9.2-15.9-18.7
			c-0.3-5.6-0.8-11.1-1.6-16.7c-0.8-5.4-0.3-10.8,3.9-14.8c4.8-4.5,6.2-9.6,4.9-15.9C1787.6,196.5,1788,193.5,1790.3,191.1
			L1790.3,191.1L1790.3,191.1z"/>
		<path id="path138" class="st119" d="M1790.3,191.1c0.2,4.7-0.6,9.4,1.3,13.9c1,2.3,0.3,4.6-1.5,6.5c-1,1-1.9,2.3-3.1,3.1
			c-5.9,4.2-6.7,10.4-5.2,16.5c1.3,5.3,1.2,10.4,1.4,15.7c0.2,8.6,7.5,16.5,16,16.6c4.5,0.1,8,1.3,10.8,4.8c0.9,1.1,2.1,2,3.1,3.1
			c6,7,13.4,7.4,21.7,5.4c4.3-1,7.8-4.1,12.4-4.3c0.6,0.7,1,1.5,1.3,2.3c0.6,2.2,0.6,4.5,0.5,6.7c-0.2,4.2-1.8,7.9-4.4,11.1
			c-4.6,4-8.7,8.3-8.6,15.1c0,2.1-1.6,3.6-3.1,5c-1.7,2-3.5,3.9-5.2,5.9c-6.8,7.7-16.1,9.8-25.5,5.9c-0.8-0.3-1.7-0.6-2.4-1.2
			c-2.5-1.9-4.8-1.9-7.1,0.3c-0.4,0.4-0.9,0.7-1.4,1c-9.5,5.9-21.2,4.3-28.7-3.9c-3.3-3.6-5.5-7.7-5.2-12.7c0.2-3-0.4-4.8-3.2-6.4
			c-11.7-6.7-14.2-23.9-3.6-35.1c0.4-0.4,0.8-0.8,1.2-1.3c2.1-2.4,5.5-4.1,6.2-7.3c0.7-3.4-2.5-5.8-4.3-8.3
			c-5-6.9-2.8-18.1,2.1-23.8c1-1.1,1.9-2.4,3.1-3.1c5.1-2.8,6.8-6.7,6.9-12.7c0.2-9,8.5-16.7,18.4-18.8
			C1786.1,191.1,1788.2,191.2,1790.3,191.1L1790.3,191.1L1790.3,191.1z"/>
		<path id="path139" class="st120" d="M1920,298.8v68c-4,1.8-8.2,3.1-12.4,4.1c-6.7,1.6-8.7,0.8-12.6-4.9c-1.7-2.4-3.3-4.9-4.8-7.4
			c-11.2-19.2-27.7-32.4-47.6-41.6c-3.2-1.5-6.4-2.8-9.7-4.2c0.5-2,1.6-4,1.4-5.9c-0.8-7.6,3.4-11.9,9.4-15.2
			c5.1-2.7,9,0.5,13.1,2.6c3.1,1.6,6.2,3.5,10.3,5.4c-3.7-7.7-8.8-13.5-13.3-19.7c-1.2-1.7-3.3-3-3.6-5.1c0-0.7,0-1.5,0.4-2.4
			c2.9-0.2,5.7-0.1,8.6-0.9c8.4-2.4,15.4-6.3,19-14.8c0.5,0.5,0.9,1,1.3,1.5c3.8,5.1,4.1,12,7.7,17.2c1.8,2.6,2.3,6,5,8.2
			c0.9-8.3-1-16.5,1.2-24.5c0-0.3,0.2-0.6,0.2-0.8c9.2-8.7,14.6-8.7,23.9,0.1c0,5.9,0,11.7-0.4,17.6
			C1916.6,284,1917.6,291.6,1920,298.8L1920,298.8L1920,298.8z"/>
		<path id="path140" class="st121" d="M1920,1042.8v37.1h-13.2c-1.7-2.8-3.1-5.8-4.3-8.8c-2.1-5.3-1.5-10.2,1.9-14.9
			c2.7-3.6,5.9-6.5,9.4-9.1C1915.8,1045.6,1917.9,1044.2,1920,1042.8L1920,1042.8L1920,1042.8z"/>
		<path id="path141" class="st122" d="M1920,172.5v84.8c-0.9,0.4-1.7,0.8-2.6,1.2c-0.8-0.2-1.7-0.4-2.5-0.7c-3.4-1.4-6.9-4.1-10.3-4
			s-6.7,3.1-10.1,4.8c-0.4,0.3-0.9,0.5-1.3,0.7c-5.1,2.4-9.4,1.4-13.2-2.5c-0.4-0.4-0.8-0.9-1.3-1.4v-3.5c0-11.6-1.3-9.4,6.7-16.9
			c9.2-8.5,7.3-22.9-4.1-30.9c-0.7-0.5-1.5-0.9-2.3-1.2c-4.2-1.8-7-4.3-8.9-8.9c-3.3-7.9-9.2-10.5-17.7-9c-2,0.4-3.3,0-4.8-1.1
			c-6.7-4.7-14.3-6.6-22.3-7c3.8-6.6,9.5-11.1,16.7-13.7c7.7-2.7,15.1-1.6,22.1,2.3c2,1.1,4.1,2.5,5.8,4c1.9,1.8,3.5,1.4,5.5,0.3
			c3.3-2,6.8-3.4,10.7-3.8c6.7-0.7,13,0.2,18.1,5.1c2.2,2.1,4.3,3,7.1,1.9c0.3-0.1,0.6-0.1,0.9-0.2
			C1915,172.2,1917.7,172.2,1920,172.5L1920,172.5L1920,172.5z"/>
		<path id="path142" class="st123" d="M1761.8,1013.3c-6.7-9-6.5-19.2-4.8-29.5c1-6.1,3.6-11.8,6.7-17.2c1.7-3.1,3-3.2,5.3-0.8
			c1,1,1.8,2.2,2.9,3.7c1.3-2.4,2.4-4.5,3.6-6.5c1.7-2.8,3.3-5.6,5.3-8.1c5.8-7.4,7.3-7.2,12.1,0.9c2.2-0.3,3.3-2.3,4.8-3.6
			c2.4-2.2,4.7-4.5,7.2-6.6c8-6.6,9.7-6.1,13.1,3.4c2.6,0.8,4.4-1.1,6.4-2.2c6.4-3.6,13.2-4.8,20.4-4.3c4.4,0.4,5.5,1.7,5.4,6.3
			c0,6-1.6,11.6-3.8,17.1c-0.9,2.2-2,4.3-2.9,6.4c-0.5,1.2-0.5,2.5,0.7,3.1c2.1,1.1,4.9,1.7,5.3,4.2c0.5,3.2-2.2,5.2-4.2,7.4
			c-3.9,4.3-8.1,8.4-14,10.7c2.6,2.4,4.6,4.2,6.4,6c1.3,1.4,1.1,3.3-0.3,4.7c-3,3-6.7,4.8-10.6,6.2c-3.6,1.3-7.2,2.4-10.7,3.6
			c-0.6,2.1,1.1,2.7,1.7,3.9c0.8,1.5,0.7,2.8-0.7,3.9c-0.5,0.4-0.9,0.8-1.4,1c-17.9,8.2-38,3.9-49.3-7.4s-0.6-1-0.9-1.5
			c7.5-7.5,15.8-13.6,26.8-14.3c5.6-0.4,11.2,0,16.8,0c0-0.6-0.4-0.7-1.2-0.8c-4.8-0.7-11.4,1.1-13.4-4.3c-1.9-5.2,4.8-7.2,7.8-10.4
			c6.3-6.7,14.1-10.3,25.7-9c-10.8-4.5-10.7-5.7-1.1-15.5c-2.4,3.1-5.2,4.6-7.5,6.5c-4.5,3.7-7.4,2.9-8.6-3.5
			c1.1,13.5-9.1,19.5-16.9,26.8c-4.3,4-6.8,1.7-7.3-3.5c-0.3-2.9,0-5.7-0.4-9.4C1784.1,1002.2,1776.2,1012.6,1761.8,1013.3
			L1761.8,1013.3L1761.8,1013.3z"/>
		<path id="path143" class="st124" d="M1917.3,554.7c0.9-1.1,1.8-2.2,2.7-3.4v17.3c-6.3,7.2-12.5,14.4-17.9,22.3
			c-1.1,1.7-2.2,3.5-4.1,4.4c-0.5,0.3-1.1,0.4-1.7,0.5c-3.6,0.6-6.4-2.6-10.1-2.1l0,0C1895.2,579.6,1906.9,567.7,1917.3,554.7z"/>
		<path id="path144" class="st125" d="M1914.3,821.4c2.1,0,4.1-0.3,5.7-0.7V838c-10.8,0.4-21.2-1.5-31.4-4.8c-12.6-4-25-8.4-37.4-13
			c-5.8-2.1-11.3-5-16.8-7.8c-2.3-1.2-4.4-2.9-6.4-4.6c-7.6-6.5-9.6-14.3-5.9-23.7c4.2-10.7,8.7-21.1,15.9-30.3
			c9.5-12.1,14.4-26.1,16.1-41.3c1-9.3,2.6-18.6,4.2-27.8c0.9-5.5,1-11.1,3-16.4c2.8,1.8,5.6,3.6,8.4,5.4c0.7,0.5,1.1,1.2,1.1,2.1
			v0.4c0,1.6-0.3,3.2-0.3,4.8c-1.3,14.6-3.3,29.2-6.2,43.6c-2.9,14.7-10.8,27.1-19.2,39.3c-15.7,22.9-13.1,31.9,12.3,44
			C1875.4,816.3,1894,822.3,1914.3,821.4L1914.3,821.4L1914.3,821.4z"/>
		<path id="path145" class="st126" d="M1920,1016.5v7.3c-7.6-1-15.2-2.2-22.7-3.8c-5.2-1.1-10.2-2.8-14.7-5.7
			c0.4-0.4,0.9-1.1,1.2-1.1C1895.7,1016.8,1907.8,1016.7,1920,1016.5z"/>
		<path id="path146" class="st127" d="M1920,988.7v8c-9.5-0.7-19-2.1-28.4-3.3c-2.6-0.3-5.2-1-7.7-1.5c-2.9-1.3-5.8-2.5-8.8-3.8
			c0.5-1.2,1.4-1.9,2.7-1.6C1891.8,989.3,1905.9,989.4,1920,988.7L1920,988.7L1920,988.7z"/>
		<path id="path147" class="st128" d="M1920,0v6.3c-15.3,11.7-33,17.8-52,20.8c-3.4,0.5-7.1,0.7-9.9-2.2c-1.1-6.1,0.3-12.2,0.7-18.4
			c-4.3-1.2-8.5-0.3-12.5-0.4c-7.3-0.2-14.7,0-21.8-2.2c-2.8-0.9-5.6-1.9-8-3.6c0,0-0.3-0.2-0.4-0.3h47.8c2.1,2.6,5.4,1.9,8.5,1.5
			c2.6-0.4,5.1-0.9,7.6-1.5L1920,0L1920,0z"/>
		<path id="path148" class="st10" d="M1774.5,534.1c0.3-1.1,0.3-2.4,0.9-3.3c5.6-8.7,9.6-18.2,14.2-27.3c1.6-3.1,1.7-5.5,0-8.9
			c-3.7-6.6-6.3-13.8-8.3-21.2c-2.2-8.7-0.8-16.9,2-25c5.2-15.2,14.2-27.6,27.8-36.4c6.3-4.1,13.1-6.5,20.4-7.8
			c1.4-0.3,2.9-0.3,4.3,0c9.4,2.1,16.7,6.9,20.5,16.2c5,12.3,6,24.9,3.9,38c-1.4,8.2-3.9,15.9-8.6,22.9
			c-7.4,11.2-17.1,19.2-30.5,22.3c-0.6,0.1-1.1,0.3-1.7,0.4c-8.1,1-13.2,5.1-15.6,13.2c-2.3,7.5-6,14.7-8.9,22c-0.8,1.9-1,4-1.5,5.9
			c-6.8-2.8-12.2-8-18.8-11L1774.5,534.1L1774.5,534.1z"/>
		<path id="path149" class="st129" d="M1920,67.9v11.8c-5.6,0-11.1-1.2-16.7-3.4c0.8-4.7,5.2-4,8.1-5.2
			C1914.2,69.9,1917.2,69,1920,67.9z"/>
		<path id="path150" class="st130" d="M1774.5,534.1c8.2,0.4,14.2,4.5,18.8,10.9c1.3,4.1,0.9,8.1-0.6,12.1c-2.1,5.5-4,11.1-6,16.6
			c-7,18.7-14,37.4-21.1,56.1c-1.2,3.3-2.5,6.7-4.4,9.6c-9.9,14.9-25.8,12.3-34.3,2.3c-4.7-5.5-4.9-11.9-3.1-18.3
			c1.1-3.9,2.9-7.7,4.7-11.3c10.1-19.6,20.4-39.1,30.6-58.6c1.5-2.9,3-5.7,4.5-8.6c2.1-4,4.8-7.4,8.9-9.5
			C1773.2,535,1773.9,534.6,1774.5,534.1L1774.5,534.1z"/>
		<path id="path151" class="st131" d="M1920,24.9v28c-6,3-12.3,5.5-19,7.4c-0.7,0.2-1.4,0.4-2.2,0.6c-0.2,0-0.4,0-0.6,0.2
			c-5.7,1-11.3,4.1-17.3,1.4l0,0c-6.2-4.9-11.1-10.9-14.9-17.8c2.7-3.2,6.6-3.6,10.3-4C1892.7,39.1,1907.1,33.7,1920,24.9z"/>
		<path id="path152" class="st132" d="M1920,3.3v24.5c-10.2,6.6-21.5,11.4-34,14c-6.6,1.4-13.3,1.9-20,2.9c-1.6-0.9-2.6-2.3-3.2-4
			c-1.7-5.2-3.9-10.3-4.8-15.8c6.9,1.3,13.5-0.4,20-2c10.2-2.5,20.3-5.8,29.6-11C1912.1,9.3,1916.2,6.5,1920,3.3z"/>
		<path id="path153" class="st24" d="M1920,50.4v16.4c-5-0.6-10-1.1-14.7-2.7c-2.3-0.8-5.2-0.8-6.4-3.2c-0.3-0.5-0.4-1.1-0.5-1.9
			c4.7-1.7,9.4-3.3,14-5.1C1915,52.8,1917.5,51.7,1920,50.4z"/>
		<path id="path154" class="st24" d="M1887.7,0c-5.5,1.9-11.3,3.2-17.3,4c-1.2,0-2.3,0.2-3.5,0.3c-5.8,0.7-6.2,0.7-4.7-4.3H1887.7z"
			/>
		<path id="path155" class="st133" d="M1920,64.1v6.3c-4.1,2-8.6,2.8-13,4c-1.4,0.4-2.9,0.3-3.7,1.8c-8.5-2.9-16-7.5-22.4-13.8
			c5.8-1.1,11.6-2.3,17.5-3.5c0.9,0.5,1.8,0.9,2.6,1.3c5.2,2.4,10.7,3.5,16.4,3.6C1918.3,63.8,1919.2,64,1920,64.1z"/>
		<path id="path156" class="st134" d="M1917.9,1056.4c0.7-1,1.4-1.9,2.1-2.8v11.6l0,0C1916.1,1062.8,1915.4,1060.1,1917.9,1056.4
			L1917.9,1056.4L1917.9,1056.4z"/>
		<path id="path157" class="st135" d="M1920,693.4v130.5c-0.4,0-0.9,0-1.4,0.2c-10.1,1-20-0.2-29.8-2.5c-12-2.8-23.6-7.1-34.8-12.3
			c-5.9-2.8-11.3-6.3-16-10.8c-6.1-5.7-7.4-12.2-4.2-20c3.1-7.4,7.5-14,12.2-20.3c7.5-10.1,12.8-21.1,15.5-33.3
			c1-4.6,1.9-9.2,2.6-13.9c1.6-10.8,2.9-21.5,4.4-32.3c0.4-1,0.4-2.1,0.8-3.2v-1.9c0.9,0.2,1.9,0,2.6,0.5
			c15.2,8.6,31.4,14.4,47.9,19.3H1920L1920,693.4z"/>
		<path id="path158" class="st136" d="M1897,594.8c6.6-10.7,15-20,23-29.5V581c-2.1,2.5-4.1,5.2-1.3,7.3c0.4,0.3,0.9,0.6,1.3,0.7
			v19.6c-6.7-2.9-13.3-6.1-20-9c-1.7-0.7-3-1.8-3.7-3.5C1896.5,595.5,1896.7,595.1,1897,594.8z"/>
		<path id="path159" class="st118" d="M1847.1,273.9c1.8,2.5,1.7,5.1,0,7.7V273.9z"/>
		<path id="path160" class="st137" d="M1915.2,584.7c1.4-2.5,3.1-4.8,4.8-7.1v14.8c-1.5,0-2.9-0.3-4.1-1.3
			C1914.1,589.6,1913.6,587.5,1915.2,584.7L1915.2,584.7L1915.2,584.7z"/>
		<path id="path161" class="st117" d="M1869.5,675.2c0.4,1.3,0.3,2.5-0.9,3.4C1868.2,677.3,1868.6,676.2,1869.5,675.2z"/>
		<path id="path162" class="st138" d="M1852.2,444.9c-1,8.7-1.8,17.5-6.2,25.3c-5.7,10.1-14.2,17.2-25.2,20.8
			c-6.6,2.2-12.8-0.7-18.3-4.3c-8.3-5.5-11.7-14.2-11.8-23.4c0-7.1,2-14.4,5.5-21c4.6-8.8,11.3-15.7,18.7-21.9
			c4.1-3.4,9.3-5,14.4-6.3c2.3-0.6,4.7-0.5,6.9,0.7c5.8,3.2,10.7,7.1,12.8,13.8C1850.7,433.9,1852.5,439.2,1852.2,444.9z"/>
		<path id="path163" class="st139" d="M1785,553.4c0,2.1-0.5,4.3-1.3,6.6c-2.7,7.1-5.1,14.4-7.7,21.5c-4.5,12.4-9.2,24.7-13.7,37.2
			c-2.1,5.9-4.7,11.5-7.9,16.7c-4,6.5-11.5,8.1-17.7,4.3c-4.8-2.9-7.1-8.9-5.3-14.5c0.9-2.8,1.9-5.6,3.2-8.2
			c8.5-17.1,17-34.3,25.8-51.3c3.1-6,6.8-11.7,10.4-17.4c2.3-3.6,5.4-4.6,9-3.6C1783,545.8,1785,548.9,1785,553.4z"/>
		<path id="path164" class="st140" d="M1882.1,782.8c0,3.7-3.6,7.5-7.2,7.4c-3.4,0-6.6-3.3-6.8-6.8c0-3.8,3.5-7.5,7.2-7.4
			C1878.7,776,1882.1,779.5,1882.1,782.8z"/>
		<path id="path165" class="st141" d="M1920,725.7v9.4c-1.4-1.4-2.5-3.4-2.1-5c0.2-0.9,0.5-1.7,0.9-2.5
			C1919.2,726.9,1919.6,726.2,1920,725.7z"/>
	</g>
</g>
<g>
	<defs>
		<polygon id="SVGID_1_" points="578,1080 0,1080 0,178 602.7,173.3 		"/>
	</defs>
	<clipPath id="SVGID_2_">
		<use xlink:href="#SVGID_1_"  style="overflow:visible;"/>
	</clipPath>
	<g class="st142">
		<g>
			<g>
				<path class="st143" d="M481.8,1110.2c3.5,8.5,5.4,17.6,3.3,27.1s-12.9,19.7-25.3,17.8c-11.1-1.8-21.1-7.6-29.8-14.9
					s-21.2-20-29.3-32.5l-24.6-38.1c-4.1-6.4-2.7-14,3-18.4c2.9,2.9,3.5,7.1,5.7,10.6l14.5,23.7l15.1,21.5c4.2,6.1,8.6,11.7,15,16.6
					c14.4-12.8,33.7-18.2,52.3-13.5L481.8,1110.2z"/>
				<g>
					<path class="st144" d="M405.5,1024.6c3.3,10.7,8.4,20.6,18,26.7l12,7.6l4.3-8.2c5-9.5,24.9-4.3,33.1,1.2s5.3,7.7,2.2,11.5
						l-7.3,9.7c-13.3-3.7-34.3-3.2-33.1,2.9c0.9,4.6,12.5-1.9,29.8,2.7c1.8,0.5,3.4,0.7,4.9,0.5l1,3.9c-12.9-3.7-34.5-0.7-30.8,5.7
						c0.6,1,2.4,1.8,4.2,1.1c9.8-3.5,19.8-2.1,29.7-0.3l1.9,4.8c-13.5-3.2-34.8,1-31.6,6.4c2.8,4.7,11.7-2.8,23.2-1.4l11.3,1.3
						l3.8,9.3c-18.6-4.8-37.9,0.7-52.3,13.5c-6.4-4.9-10.7-10.5-15-16.6l-15.1-21.5l-14.5-23.7c-2.2-3.5-2.8-7.7-5.7-10.6l16.8-22.4
						c2.2-3,6.4-4.3,9.4-4.2L405.5,1024.6z"/>
					<g>
						<path class="st145" d="M243.5,1061.1c-13.1,19.2-27.4,37.5-41.7,55.4c-4.8,2.5-9.2,6.1-15.1,6.9c2.6-5.9,3.1-13.9-2.6-17.8
							c-7.1-4.9-15.9-7.4-24.4-8.1c-7.2-0.6-12.9,4.2-14.7,10.9c-2.4-4.2-6.2-9.8-5.6-14.9l3.9-30.5l7.4-35.1l25.5,17.2
							c19.8,10.5,41.8,15.5,64.2,15C241.7,1060.1,242.4,1060.1,243.5,1061.1L243.5,1061.1z"/>
						<path class="st146" d="M255.2,1042.6c0,1.3-0.5,2.1-1.1,3.1l-10.5,15.5c-1-1-1.8-1-3.1-0.9c-22.4,0.4-44.3-4.5-64.2-15
							l-25.5-17.2l2.7-11.3l32.6,14.1c22.6,7.6,45.8,11.3,69.1,11.9L255.2,1042.6z"/>
					</g>
					<path class="st143" d="M467.6,1073.2c2.4,0.7,1.9,4.4,1.5,6.2c-1.5,0.1-3.1,0-4.9-0.5c-17.2-4.7-28.9,1.8-29.8-2.7
						C433.2,1070.1,454.2,1069.6,467.6,1073.2L467.6,1073.2z"/>
					<path class="st143" d="M470.1,1083.3c2.9,1.1,2.2,4.3,3.1,6.5c-9.9-1.8-19.9-3.2-29.7,0.3s-3.6,0-4.2-1.1
						C435.5,1082.6,457.2,1079.6,470.1,1083.3L470.1,1083.3z"/>
					<path class="st143" d="M475.1,1094.6l2.9,6.3l-11.3-1.3c-11.5-1.3-20.3,6.1-23.2,1.4C440.2,1095.6,461.6,1091.5,475.1,1094.6z"
						/>
				</g>
				<g>
					<path class="st145" d="M528.5,942.8l1.4,3.7c2.6,13.7,0.9,28.1-6.3,40.4l-12.1,20.8c-11.7,16.1-24.9,30.6-38.8,44.3
						c-8.2-5.5-28.1-10.7-33.1-1.2l-4.3,8.2l-12-7.6c-9.6-6.1-14.7-16.1-18-26.7l7.4-22l41.8-26.6l21.7-14
						c16.1-10.3,33.3-17.2,52.1-19.2L528.5,942.8z"/>
					<path class="st146" d="M517.8,931.5h4.8c0.9,0,1.9,0,2.7,0.2l3.2,11.1c-18.8,2-36,8.9-52.1,19.2l-21.7,14l-41.8,26.6l1.2-5.7
						l3.8-14c0.7-0.5,1.4-0.9,1.7-1.8c0.4-0.2,0.7-0.5,1.1-0.9l9.9-6.9C461.1,951.8,481,940.2,517.8,931.5L517.8,931.5z"/>
					<path class="st147" d="M419.6,981.2c0.1-0.4,0.8-0.7,1.1-0.9C420.3,980.6,420,980.9,419.6,981.2z"/>
				</g>
				<g>
					<path class="st148" d="M489.2,850c9.4,10.2,18.7,20.6,26,32.9l23.1,38.7l2.2,6.4c-2.6,3.8-9.8,0.7-15.1,3.8
						c-0.8-0.1-1.8-0.3-2.7-0.2c-1.2-1.3-3.7-1.3-4.8,0c-36.8,8.7-56.7,20.3-87.2,41.8l-9.9,6.9c-0.3,0.2-1,0.5-1.1,0.9
						c-0.3,0.9-1,1.3-1.7,1.8l-19.2,14.7c-2,1.6-4.2,2-6.5,1.5c-5.1-4.3-6.2-12-21.9-22.8l-22-15.9c0,0-19.3,6-18.7,6.9
						c0,2.2-1.6,4.8-2.8,7.3l-26.8,58.2c-2.2,4.8-5.7,7.3-11,8c-11.4,1.6-22.8,2.2-33.9,1.9c-23.3-0.6-46.6-4.3-69.1-11.9
						l-32.6-14.1c-5.8-2.5-11.9-5.8-16.7-10.7c-2.5-2.6-1.2-8.8-0.1-12.2c6.5-19.4,9.7-38.7,9.6-59.2l3-32.9l6.4,0.4
						c18,3.4,35.6,5.5,54,6.7c3.3,0.1,5.5,0.3,7.3,0.3c50.1,1.7,99.5-4.3,146.9-20.4l41.3-17.6c16.5-8.3,30.4-19.1,45.3-30.5
						c9.8,7.4,22.5,13.2,34.6,12.2c1.6-0.2,2.9-2.2,4.1-2.8L489.2,850z"/>
					<path class="st147" d="M466.8,816.6c0.3,3.1,0.9,7,2.6,10L456.6,838c5.7,4.3,11.3,7.6,18.1,8.5l13.3,1.8
						c0.3,0.6,1.2,1.7,1.6,2.2c-1.2,0.6-3,2.5-4.6,2.7c-12.2,1-23.6-3.6-33.4-11c-14.9,11.4-30,20.7-46.5,29l-41.3,17.6
						c-47.4,16.2-96.8,22.1-146.9,20.4c-6.6,28.7-35.9,49.2-64.4,40.9c-1.9-0.9-3-2.7-2.2-4.6s2.2-2.7,4.3-2.2
						c25,5.5,46.2-9.5,55-34.4c-18.4-1.2-36-3.3-54-6.7l-6.4-0.4c0-0.5,0-1.1-0.3-1.6l12.7-0.3c22.6-0.5,43.7-7.5,64.5-14.7
						l20.6-0.5l16.8-0.7h1.9c0.4,0,0.8-0.5,1-0.8c19.4-0.8,38.3-2.8,57.9-6.9c41.9-8.7,101.5-31.1,130.4-61.5l6.6-7
						c1.3,0.4,2.2,2,2.9,3.5l2.6,5.3L466.8,816.6z"/>
					<path class="st147" d="M348.3,960.4l-6.6,2.6c-4.1,1.6-8.1,4.4-12.2,4.5c-0.6-0.9-1.9-2.4-1.9-3.6s1-3.5,2.6-4.3
						c14.2-7.2,28-14.8,41-24.3l26.4-23.1c1.3-1.2,3.2-1.1,4.1-0.5c1.3,0.9,1.8,2.6,0.8,4.1c-9.8,14.6-33.1,32.4-49.1,41l-5,3.6
						L348.3,960.4z"/>
					<path class="st148" d="M469.4,826.6c3.7,1.9,5.8,5.8,8.9,9s7.7,7.9,9.8,12.8l-13.3-1.8c-6.8-0.9-13.3-4.6-18.9-8.9L469.4,826.6
						L469.4,826.6z"/>
					<path class="st147" d="M529.9,946.5l-1.4-3.7l-3.2-11.1c5.3-3.1,12.6,0,15.1-3.8C542.1,933,535.5,942.1,529.9,946.5
						L529.9,946.5z"/>
					<path class="st147" d="M417.9,983l-3.8,14l-15.9,3.9c-2.6,0.7-4.3-0.3-6-1.7c2.3,0.5,4.4,0,6.5-1.5L417.9,983L417.9,983z"/>
					<path class="st147" d="M522.6,931.5h-4.8C518.8,930.2,521.4,930.2,522.6,931.5z"/>
				</g>
				<g>
					<path class="st144" d="M139.5,1093.5c-0.7,5.1,3.1,10.7,5.6,14.9c1.8-6.7,7.5-11.5,14.7-10.9c8.5,0.7,17.3,3.2,24.4,8.1
						c5.6,3.9,5.2,11.9,2.6,17.8c5.9-0.8,10.3-4.4,15.1-6.9c1.1,8.9-1.9,17-3.9,25.6c-1.7,7.4-1.7,15.3-5.7,21.3l-2.6,3.9
						c-3,6-5.6,11.6-10.2,16.9c-9.3-12.9-21.9-19.9-36.5-23.4c-10.3-2.5-20.3-3.2-30.8,0c0.4-8.4,1.7-15.9,3.7-23.4
						c2.1-8.2,5.8-15.9,10-23.7l8.9-16.3c1.1-1.9,2.7-3.5,4.8-4.1L139.5,1093.5z M160.6,1123.5c-9.3-2.1-21.1-3.6-20.7,1.3
						s18.5-1.7,37.2,13.8c1.4,1.1,3.2,0.5,4.1-0.6C184.3,1133.9,171.1,1125.9,160.6,1123.5L160.6,1123.5z M176.8,1149.5
						c0.9-1.2,0.6-3-0.7-4.3c-9.4-9.2-22-12.8-35.3-12.4s-4.3,1-4.3,3.3s1.9,3.5,4.4,3.2C162,1136.7,173,1154.2,176.8,1149.5
						L176.8,1149.5z M173,1159.7c0.4-1.3,0.4-2.6-1.1-3.7c-10.7-7.9-23.8-12.1-37.1-11.5s-2.1,2.4-1.8,3.5s1.6,2.3,3.4,2.3
						c25.1,0.6,34.4,15.9,36.6,9.5L173,1159.7z"/>
					<path class="st143" d="M192.2,1163.4c0.7,0.2,1.1,0.9,0.8,1.8c-2.7,9.7-5.6,19.4-11.4,27.9c-10.4,15.2-29.9,22.1-47.6,17.8
						c-11.1-2.7-19.4-10-23.8-20.2c-7.3-16.7-3.2-33.3,3.3-50.1c0.6-1.5,1-2.7,2.3-3.2c-1.9,7.5-3.3,15-3.7,23.4
						c10.5-3.3,20.5-2.5,30.8,0c14.6,3.5,27.2,10.5,36.5,23.4c4.6-5.2,7.3-10.9,10.2-16.9L192.2,1163.4L192.2,1163.4z"/>
					<path class="st143" d="M176.8,1149.5c-3.7,4.7-14.8-12.8-35.9-10.2c-2.5,0.3-4.4-1.2-4.4-3.2s1.8-3.2,4.3-3.3
						c13.2-0.4,25.8,3.2,35.3,12.4S177.7,1148.3,176.8,1149.5L176.8,1149.5z"/>
					<path class="st143" d="M160.6,1123.5c10.5,2.4,23.8,10.4,20.6,14.5s-2.7,1.8-4.1,0.6c-18.7-15.5-36.7-8.2-37.2-13.8
						S151.3,1121.4,160.6,1123.5L160.6,1123.5z"/>
					<path class="st143" d="M173,1159.7c-2.2,6.4-11.5-8.9-36.6-9.5c-1.8,0-3-1.2-3.4-2.3s0-3.4,1.8-3.5
						c13.4-0.6,26.5,3.6,37.1,11.5c1.5,1.1,1.5,2.5,1.1,3.7V1159.7z"/>
				</g>
			</g>
			<g>
				<g>
					<path class="st149" d="M313.5,476.3c5.5,11.3,13.9,16.6,21.1,33.7c8.9,21.2,5.1,45.9-9.5,64.2c-4.9,6.2-10.1,12-16.2,16.4
						c-21.1,15.2-40.1,20.7-66.8,21.3l-16.1-1.3l-1,0.2c-0.3-0.9-1.1-0.8-1.8-0.9c-10.1-2.9-20.6-6-29.4-12.7l-12.1-12l-8.3-13.3
						c-5.4,4.8-11.9,6.7-18.7,4.7s-16.2-9.3-19.4-17.1s-2.7-18.5,1.7-26.7c4-3.4,8.5-9.1,14.5-9.1c14.7,0,16.6,12.7,21.9,11.5
						s2.6-7.2,1.6-13.5l-1.7-17.4l8-17.7c4.2-12.8,4.4-25.3,0.2-39.2c1.3-17.1,66.2-52.1,117.7-8.7c7.2,11.8,8.7,26.1,14.4,37.7
						L313.5,476.3z"/>
					<path class="st150" d="M313.6,476.1c-5.7-11.6-8.9-24.8-16.1-36.6c-9-4.3-20.2-6.8-28.4-12.9l-1.1,1.2
						c3.6,6.7,10.8,10.4,5.1,11.8c-13.9,3.6-28.3-0.7-42.2-5.1c5.3,7.9,16.7,12.5,9.6,14.7c-19.2,5.9-39,5-59-2.1
						c4.2,13.9,4,26.3-0.2,39.2l-8,17.7l3.4,20.3c1,6.3,0.7,13.1-2.8,13.9c-5.4,1.2-7.9-12.8-22.6-12.8c-6,0-10.3,3.7-14.3,7
						l-9.5-12.4c-8.6-13.5-13.4-29-13.7-45.1s14-38.7,34.5-44.1c11.5-40.9,57.8-61.1,98.4-59.5c31.4,1.7,62,21.3,67.5,52.7l2.5,14
						c-1,0.8-2.5,2-2.9,3.2C316.7,452.9,317.1,464.9,313.6,476.1L313.6,476.1z M268.5,426.6c-0.7-1.2-2.1,0-1,0.9L268.5,426.6z"/>
					<path class="st146" d="M309.5,589.8c-1.6,23.6-15.7,35.4-39.5,34.6c-14.2-0.4-29.3-6.2-42.3-11.6c-1.7-0.7-3-1.1-3-2.8
						l16.1,1.3c26.7-0.6,45.3-4.7,66.3-19.9L309.5,589.8z"/>
					<path class="st146" d="M225,610.7c-0.8,0.1-1.5-0.2-1.8-0.9C223.9,610,224.7,609.8,225,610.7z"/>
					<path class="st151" d="M298.8,518.8c0.5,7.9-0.9,15.7-3.4,23.6s-10.2,18.2-15.8,17.7c-11-10.8-31.1-14.5-42.3-4.4
						c-6.7-6.3-11.7-13.3-13.3-22.4c0.3-0.7,1.4-2.9,2-2.8l2.1,0.4c2,4.1,5.8,7.7,10.7,9.1c18.7,5.1,51,1.8,52.2-17.6
						c2.6-1.2,4.6-3.7,7.9-3.7L298.8,518.8z"/>
					<path class="st146" d="M279.5,560.1c-0.3,1.2-0.9,2.4-2.7,3c-13.9,4.9-29.4,2.5-39.6-7.4C248.5,545.7,269.1,548.6,279.5,560.1
						L279.5,560.1z"/>
					<path class="st150" d="M204.1,483.5c-1.2,1.1-2.8,1.2-3.7,0.9c-5.2-1.9,4.5-22,22.8-24.3c2.9-0.4,5.2,1.3,6,3.7
						C231.5,470.7,216.9,471.3,204.1,483.5L204.1,483.5z"/>
					<path class="st146" d="M298.8,518.8c-1.8,0.9-4.6,2.3-7.9,3.7c-13.1,5.6-22.9,8.4-34.5,9c-8.6,0.4-19.9,0.8-25-1
						c-1.4-0.5-1.8,0.3-1.8,0.3c-0.8,0.2-1,0.4-1.6,0.2l-2.1-0.4c-0.7-0.1-1.3,2-1.6,2.8c-3.6,0.6-3.8,3.9-6,3.5s-1.1-2.1-0.4-2.9
						l8.1-9.6c1.4-1.6,3.4-1.4,3.5-0.8s-0.1,1.9-0.8,3.6c21.9,3.1,44.3,1.1,64.5-8.4c1.2-0.6,2.7-1.5,2.9-2.4s-0.9-2.6-1-4.7
						c3.9,0.4,7.2,3.2,10,6.4c0.9,1.1,1.1,1.8,0.9,2.2c-0.4,0.7-2.2,0.3-3.1,0.1C301.8,520.2,300.4,519.8,298.8,518.8z"/>
					<path class="st150" d="M292.7,460c-13.8-4.2-25.2,0.9-26.5-5.2s0.6-5.4,3.6-6.5c13.4-4.9,29.4,4.5,27.1,10s-2.3,2.2-4.3,1.6
						L292.7,460z"/>
					<path class="st146" d="M280.9,599.1c-17.3,7.2-31.9-3.6-30.1-6.4s2-1.2,3.2-0.6c14.5,7,32.4,2.8,38.9-11s1.3-2.2,2.7-1.8
						c3.4,0.9-0.1,13.8-14.6,19.9L280.9,599.1z"/>
					<path class="st146" d="M271.6,515.2c-3.5-3.5,6.7-5.1,5.3-12.5s-3-4.7-6-5.2s-6.1,0.8-9.4,2.3c-4.2-3.7-5.5-10-2.6-15.5
						c2.6,3,2.1,6.5,3.6,10.3c5.7-2,11.4-2.6,15.7,1.4s3.5,7.5,2.4,11.5s-4.4,8.3-8.9,7.7L271.6,515.2z"/>
					<path class="st150" d="M234.7,501c-9.7-5.8-14.3,1.3-21.6,6.8c-2.4-2.1-1.9-5.2-0.2-7.8c5.5-8.4,17.3-9.6,25.2-3.4
						s1,2.9,0.5,3.7S236.1,501.8,234.7,501L234.7,501z"/>
					<path class="st146" d="M162.5,550.7c-6.3,0.6-3.7,10.7-4.4,11.2s-2.5,0-3-1.1c-2.1-4.6-0.8-9.6,2.7-13.9
						c-7.3-7.8-12.5-1.3-13.5-1.8s-1.3-2.4-0.1-3.5c4.1-3.7,10.3-3.6,15-0.5c4.4,2.8,7.8,7.5,9.6,12.5c-3,2.3-4.6-2.6-6.2-2.9H162.5
						z"/>
					<path class="st150" d="M300.2,484.3c-2.6,4.5-9-8.4-19.5,5.1s-2,2-3.5,1.4c-3.6-1.5,1.5-11.4,8.1-13.3
						C293.5,475.1,302.3,480.6,300.2,484.3z"/>
					<g>
						<path class="st145" d="M-28.8,419.7c1.6,1.4,4,3.4,6.5,4.2s3,2.4,4.2,3.1c-4.2,3.7-7.4,8.5-8.9,13.8
							c-4.5-3.3-10.2-6.1-16.1-4.8c-0.7,0.2,0.3,2.5,1.5,2.8c14.5,3.1,25.3,19.7,19.3,26.1c-7.2,7.7-17.9-8.7-20.1-7.1
							c-2.8,2,3.3,12.6,15.7,14.5s8.6-5.2,12.3-7.2c5.8-2.2,12.8-4,14.5-11.1c0.2-0.6,2.9,0.3,2.4,0.8s-0.3,1.1-0.5,1.8
							c-3.5,12,0.6,20,3.7,18.3s-4.8-8,1.9-20s12.6-6.2,15-9.8s0.4-2-0.5-2.4C20,441.6,12,446.2,5,439.8c-1.6-1.5-2.7-3.4-2.5-5.4
							s1.3-3.7,3.2-4.9c5.4-4,12-5,17.6-8.4c9.6,0,16.7,7.9,17.1,18.3s-3.3,24.8-10.6,35.4l17.6,24.6l29.1,38.1
							c3.2,4.1,6.3,8,10.5,11.1l19.7,14.2c0.9,0.6,1.3,1.9,1.3,3l-5,18.3c-9.1,26.5-26.2,48.5-48.5,65.3c-9-7.6-17.8-15.6-25.9-24.6
							c-8.2-9.6-15.7-18.8-21.4-30.1c-7.4-14.4-14.3-28.3-20.1-43.5c-6.3-16.4-10.5-32.9-14.6-49.8S-46.8,482-52.1,454
							s7.5-13.9,8.8-21.2s8-13.3,14.6-13L-28.8,419.7z"/>
						<path class="st146" d="M22,418.4l1.3,2.6c-5.6,3.5-12.2,4.4-17.6,8.4c-1.8,1.2-3,3.1-3.2,4.9s0.8,3.9,2.5,5.4
							c7,6.5,15,1.9,17.1,2.9s0.9,1.8,0.5,2.4c-2.5,3.7-9.4-0.2-15,9.8s1.3,18.8-1.8,20.3c-3.3,1.6-7.3-6.6-3.8-18.6
							s0.3-1.5,0.5-1.8c0.4-0.5-2.3-1.5-2.4-0.8c-1.7,7.1-8.7,8.8-14.5,11.1c-3.7,2-6,8.3-12.3,7.2c-12.4-2-18.5-12.5-15.7-14.5
							c2.2-1.6,12.9,14.7,20.1,7.1c6-6.4-4.8-22.9-19.3-26.1s-2.2-2.6-1.5-2.8c5.9-1.4,11.6,1.4,16.1,4.8s8.7,10.2,11.4,16.7
							c2.7,1.5,6.8-0.5,8.4-2.2c6.5-6.8-2.5-23.1-10.8-28.3s-2.1-2.5-4.2-3.1s-4.8-2.7-6.5-4.2l0.2-1.3c10.7-0.5,19.9,8.7,25.1,18.5
							c0.7-5.8,3.5-9.7,7.7-13.3c-3.2-5.3-7.3-9.3-12.6-12.2c-0.5-0.4,0.9-3,1.5-2.8c6.6,1.9,11.4,6.5,15.1,12.5L22,418.4L22,418.4z
							 M4.5,446.5c-2.8-1.7-3.9-3.1-5.5-5.3c-0.2,2.6,0.3,4.3,0.7,6.5c1.8-0.2,2.9-0.2,4.7-1.1L4.5,446.5z"/>
						<path class="st146" d="M71.2,661.6c-5.2-4.1-10.1-7.7-15.3-10.5c0-0.6-0.8-1.7-1.4-1.8c22.3-16.7,39.3-38.8,48.5-65.3l5-18.3
							c0.7,0,1.4,0,2,0.4c2.1,1.6-2.5,24.3-5.2,34.5c-6.2,22.9-18.2,43.5-33.5,60.8L71.2,661.6z"/>
						<path class="st145" d="M22,418.4L8.3,421c-3.6-6-8.5-10.6-15.1-12.5c-0.6-0.1-2,2.4-1.5,2.8c5.3,2.9,9.4,6.9,12.6,12.2
							c-4.2,3.6-7,7.5-7.7,13.3c-5.2-9.7-14.4-19-25.1-18.5c2.2-7.7,11.1-10.2,18.5-10.1c2.7-3,5.5-7.2,8.9-7.9
							c10.3-2,18.8,7.6,23.1,18V418.4z"/>
						<path class="st149" d="M-27,440.8c1.5-5.3,4.7-10.1,8.9-13.8c8.3,5.2,17.3,21.5,10.8,28.3s-5.7,3.7-8.4,2.2
							C-18.4,451-21.5,444.9-27,440.8L-27,440.8z"/>
						<path class="st149" d="M4.5,446.5c-1.9,0.9-2.9,1-4.7,1.1c-0.4-2.2-1-3.9-0.7-6.5c1.6,2.2,2.7,3.7,5.5,5.3L4.5,446.5z"/>
					</g>
					<g>
						<path class="st145" d="M439,538.8c-21.4-22.2-51.9-35.7-81-43.7c-0.3,0.5-0.7,0.4-1,0.4c-0.4-0.7-1.2-0.7-2-0.9l-1.8-0.6
							c4.9-11.8,11.5-22.8,15.2-35.5l10.6-35.4c4.7-15.8,10.2-30.9,13.8-47.5c-12.4-10.1-25.5-28.2-20.7-42.7s23.1-21,26.2-22.6
							c4.7-2.5,25.7-7.3,32.2-7.2c9-1.5,17.2,3,20.6,11.8c6.7,1.8,12.4,6.2,13.3,13c2.2,16.8-1.8,32.9-10.2,47.9
							c2.7,21.8,3.3,43,3,65.2s-2.8,50.6-9.9,75.2l-8.3,22.4V538.8z"/>
						<path class="st146" d="M429.1,302.8c0.4,0.1,0.9,0.3,1.3,0.6c1,2.9-0.6,3.7-2.8,5.7c-7.7,7-10.4,18-9.6,28.2s2.1,5.2,4.4,6.6
							s7,1.7,8.3-1c0.3-18.1,16.6-31.1,18.8-27.3s-15,9.5-13.2,28.5c0.2,2.6,3,4.1,4.6,4.6c9,2.9,13-13.9,15.8-13.7
							s-0.7,16.4-12.4,19.4c-4.9,1.3-8.4-2.8-12.1-4.2c-5.5,0-11.8,1.6-16.1-3.7s-2.3-0.3-2.9,0.6c5.9,7.6,9.3,19.1,2.1,20.4
							c0.8-10.5-5.1-20.2-15.5-22.6l-7.4,1.1c-1.3,0.2-2.1-0.2-2.6-0.6s-0.8-1.9-0.3-2.5c1.1-1.3,16.4-1.4,17.5-12s-6-7.1-9.8-7.2
							l-14.4-0.5v-3.5l13.8-1.2c0.7-8.7,8.5-18.5,11.2-17.1s-6.6,7.7-6.7,18.1c6.1,1,9.8,4.1,12.4,10.2c1.1-11.2,6.4-20.9,15.5-26.7
							L429.1,302.8z M413.3,340c0.1-3.3,0.3-4.8-0.5-7.6l-3.7,7.1C410.4,340,411.7,340.2,413.3,340z"/>
						<path class="st146" d="M439,538.8c-1.8,4.8-3,10-5.8,15.2l-6.5-7.6c-18-21-41.2-36.7-66.2-48.6c-1.6-0.7-2.7-0.6-2.5-2.7
							C387.1,503.2,417.6,516.7,439,538.8z"/>
						<path class="st145" d="M429.1,302.8c-9.1,5.8-14.4,15.5-15.5,26.7c-2.6-6.1-6.8-8.4-12.9-9.5c0.2-10.5-3.8-9.7-4.5-1
							l-13.2,0.5c-0.3-5.8,1.9-12,5-17.3s6.1-6,9.8-6.8s7.8,2.7,11.2,4.2C417,297.4,425.3,296.2,429.1,302.8L429.1,302.8z"/>
						<path class="st146" d="M357,495.6c-0.8,0.1-1.7-0.1-2-0.9C355.7,495,356.5,495,357,495.6z"/>
						<path class="st149" d="M413.3,340c-1.6,0.2-2.9,0-4.2-0.5l3.7-7.1C413.6,335.2,413.4,336.7,413.3,340z"/>
					</g>
					<path class="st103" d="M228,530.9c0.9,0.2,2.1-0.8,3.4-0.5c20.4,3.3,40.8,0.8,59.5-8c-1.2,19.4-33.4,22.7-52.2,17.6
						S229.9,535.1,228,530.9z"/>
				</g>
				<g>
					<path class="st152" d="M353.3,494l1.8,0.6c0.3,0.8,1.1,1.1,2,0.9s0.7,0,1-0.4c-0.2,2.1,0.9,2,2.5,2.7
						c25,11.9,48.2,27.6,66.2,48.6l6.5,7.6l8.7,12.9c-11.6,20.5-24.1,39.9-37,59.5c-1.1,1.7-2.4,2.9-3.7,3.7l-3.7-6.5
						c-7.5-11.3-16.2-21.7-26.5-30.2s-3.3,0.3-3.3,1.1s0.3,2,1.1,2.7c10,10.3,19.1,20.8,26.9,32.8s2.8,2.4,4.4,2.4
						c5.6,9.6,9.6,19.9,12.8,30.9c10.9,13.3,21.5,25.9,30.9,40.3c12.8,19.6,21.5,40.7,27.5,63.3c3.6,13.8,7.2,27.5,6.8,41l-8.6,18.7
						c-41.9,38.1-69.9,50.6-106.8,63.4c-105,36.6-213.4,11.6-213.4,11.6c-2.6,0-7.2-1.2-9.2-3.7s-2.7-7.8-3.3-11.7
						c-4.3-30.9,2.1-67.2-3-106.5l-8.1-61.9c-0.5-3.9-2.1-6.1-5.5-8c-16.9-9.5-33.5-18.8-49.4-29.9c-4.5-3.2-9.1-5.2-12.3-9.2
						c5.5-2.1,9-5.7,12.5-9.5c15.4-17.3,27-37.8,33.1-60.7s7-32.7,5.7-33.8c-2.1-1.7-1.5-0.3-2.2-0.2c0-1.2-1.1-2.5-0.9-3.6
						c0.7-1.6,3.7-5.1,5.7-4l17.9,9.2c16.4,8.4,33.3,14.3,51.3,17.1l12.1,12c8.8,6.7,19.3,9.7,29.4,12.7c0.2,0.8,1,1.1,1.8,0.9
						l1-0.2c0,1.8,1.4,2.2,3,2.8c13,5.4,25.8,10,40.1,10.4c23.8,0.7,38.2-9.8,39.8-33.3c6.1-4.4,11.3-10.3,16.2-16.4
						c14.7-18.3,18.4-43,9.5-64.2l12.2-17l6.5,1.1L353.3,494z M361.6,681.6c1.9,0,2.8-0.9,2.9-2.1s-1.1-2.1-2.8-2.3
						c-34.9-2.8-72.9,10.7-99.1,33.4c-1.2,1-0.9,2.9-0.1,3.5s2,0.1,2.9-0.6c28-20.7,61.3-32.3,96.3-31.9L361.6,681.6z"/>
					<path class="st153" d="M401.8,629.9l-1.6,7.1c-1.6,0-3.4-5.3-4.6-7c-7.8-12.1-17-22.5-26.9-32.8c-0.8-0.8-3.8-7.7-3.8-8.3
						s5.7,3.5,6.7,4.3c10.3,8.6,19.5,19.3,26.9,30.6L401.8,629.9z"/>
					<path class="st153" d="M71.2,661.6c-3.4,3.9-7.2,7.1-12.8,9.2c-0.9-1.2-2.3-1.6-2.7-4.1c-0.8-5.3,0-10.9,0.2-15.8
						c5.2,2.8,9.2,5.7,14.4,9.9L71.2,661.6z"/>
					<path class="st153" d="M361.6,681.6c-35-0.3-68.3,11.2-96.3,31.9s-2.3,0.9-2.9,0.6c-0.8-0.6-1.1-2.5,0.1-3.5
						c26.3-22.7,64.3-36.2,99.1-33.4c1.7,0.1,2.8,0.8,2.8,2.3s-1,2.2-2.9,2.1L361.6,681.6z"/>
				</g>
			</g>
		</g>
	</g>
</g>
</svg>
