<?xml version="1.0" encoding="UTF-8"?>
<svg xmlns="http://www.w3.org/2000/svg" version="1.1" xmlns:inkscape="http://www.inkscape.org/namespaces/inkscape" xmlns:sodipodi="http://sodipodi.sourceforge.net/DTD/sodipodi-0.dtd" xmlns:svg="http://www.w3.org/2000/svg" viewBox="0 0 768.2 277">
  <!-- Generator: Adobe Illustrator 30.3.0, SVG Export Plug-In . SVG Version: 2.1.3 Build 182)  -->
  <defs>
    <style>
      .st0 {
        fill: #c7f1cb;
      }

      .st1 {
        fill: #88cb86;
      }

      .st2 {
        fill: #f5f5f5;
      }

      .st3 {
        fill: #2f662d;
      }

      .st4 {
        fill: #182d1c;
      }
    </style>
  </defs>
  <g id="svg1" sodipodi:docname="pop_judul.svg">
    <sodipodi:namedview id="namedview1" bordercolor="#666666" borderopacity="1.0" inkscape:current-layer="layer1" inkscape:cx="344.51588" inkscape:cy="119.74435" inkscape:deskcolor="#d1d1d1" inkscape:document-units="mm" inkscape:pagecheckerboard="0" inkscape:pageopacity="0.0" inkscape:showpageshadow="2" inkscape:window-height="1017" inkscape:window-maximized="1" inkscape:window-width="1920" inkscape:window-x="-8" inkscape:window-y="-8" inkscape:zoom="0.74742564" pagecolor="#ffffff"/>
    <g id="layer1" inkscape:groupmode="layer" inkscape:label="Layer 1">
      <path id="path673" class="st3" d="M752.4,17.6c-1.7-6.8-11.6-12.2-24.1-13.2-12.9-1-30.7-2.1-50.1-2.1H92.9c-19.4,0-37.3,1.1-50.1,2.1-12.4,1-21.8,6.4-24.1,13.2C.9,70.6,5.3,182,13.2,226.5c1.9,10.7,1.9,16.5,5.5,25.7,2.7,6.7,11.6,12.2,24.1,13.2,12.9,1,30.7,2.1,50.1,2.1h585.3c19.4,0,37.3-1.1,50.1-2.1,12.4-1,22.2-6.4,24.1-13.2,1.9-7.1,2.3-17.1,3.9-27.8,10.7-70.5,4.2-173.2-3.9-206.9h0Z"/>
      <path id="path674" class="st4" d="M91.8,276.5c-20.4,0-39-1.2-51-2.2-13.9-1.2-25-7.3-28.3-15.7-2.7-7.1-3.5-12.2-4.4-18.7-.4-2.5-.7-5-1.2-7.9C-.7,188.1-5.6,72.7,12.5,17.4,15.2,9.2,26.6,2.8,40.8,1.7,52.8.7,71.4-.5,91.8-.5h587.4c20.4,0,39,1.2,51,2.2,14.8,1.2,26.4,7.8,28.3,15.9,7.7,32.5,15,137.8,3.9,212.2-.6,4.3-1.1,8.4-1.5,12.3-.7,6.3-1.2,11.8-2.5,16.3-2.2,8.3-13.6,14.6-28.3,15.8-12,1-30.6,2.2-51,2.2H91.8Z"/>
      <path id="path675" class="st3" d="M752.4,17.6c-1.7-6.8-11.6-12.2-24.1-13.2-12.9-1-30.7-2.1-50.1-2.1H92.9c-19.4,0-37.3,1.1-50.1,2.1-12.4,1-21.8,6.4-24.1,13.2C.9,70.6,5.3,182,13.2,226.5c1.9,10.7,1.9,16.5,5.5,25.7,2.7,6.7,11.6,12.2,24.1,13.2,12.9,1,30.7,2.1,50.1,2.1h585.3c19.4,0,37.3-1.1,50.1-2.1,12.4-1,22.2-6.4,24.1-13.2,1.9-7.1,2.3-17.1,3.9-27.8,10.7-70.5,4.2-173.2-3.9-206.9h0Z"/>
      <path id="path676" class="st4" d="M759.9,61.9c-94.3,4.3-303.5.4-381.4-2.8-81-3.3-284.2-6.7-370.2-4.2,0,.6-.1,1.2-.1,1.8,84.9-2.6,288.1.8,368.8,4.1,53.8,2.2,235.4,4.7,298.2,4.7s57-.5,85-1.8c-.2-.6-.3-1.2-.3-1.8h0Z"/>
      <path id="path677" class="st4" d="M757.2,24.6l-113.9-1.1c-71.2-.7-264.3-1.4-335.6-4-61.1-2.3-229.6-5.8-284.2-10.6-.4.2-.8.4-1.2.7-.5.3-1,.7-1.5,1,55.9,4.9,223.8,8.4,285.4,10.7,71.8,2.7,265.2,3.4,336.6,4.1l114.6,1.1c0-.7,0-1.3-.2-1.9h0Z"/>
      <path id="path678" class="st4" d="M759.1,46.6c-100.7,2.8-309.5.1-403.1-2.5-72.7-2-265.1-4.1-346.1-3.6v1.7h0c80.5-.4,272.5,1.7,345,3.7,65.6,1.8,252.2,3.7,319,3.7s57-.3,85.2-1.2v-1.8h0Z"/>
      <path id="path679" class="st4" d="M5.9,70.8c.2.6.3,1.3.5,1.8,167-9.3,593.4-7.7,756.3,4.5.4-.6.8-1.2,1.1-1.8-80.4-6-284.4-9.5-371.3-10.3-89.4-.9-301.9,1.1-386.6,5.8Z"/>
      <path id="path680" class="st4" d="M763.2,86.6c-175.6-7.9-566.1-9.2-758-3.8-.2.6-.4,1.2-.6,1.8,189.4-5.4,598.7-4.1,758.6,3.8,0-.6,0-1.2,0-1.8h0Z"/>
      <path id="path681" class="st4" d="M743.7,5.9c-28.8-1.1-59.9-1.7-93.2-1.8-44.3-.2-216.2.4-259.6,1-36,.5-73.2,1-109.8,1s-190.1-.4-248.6-1.4c-.8.4-1.7.8-2.6,1.2-.3.1-.7.3-1,.4,68.5,1.1,210.1,1.6,252.2,1.6s74.2-.5,110.3-1c43.2-.6,214.9-1.2,258.8-1,34.6.1,66.7.8,96.3,2-.8-.7-1.8-1.3-2.8-2Z"/>
      <path id="path682" class="st4" d="M758.3,32.4c-102.7-6-316.5-8.1-416.3-6.3-51,.9-226.7,2.9-276.1,4.9l-54.3,2.1c-.4.6-.7,1.2-.9,1.9l56.7-2.2c49.2-1.9,224.7-3.9,275.3-4.9,99.7-1.8,313.3.4,415.8,6.4,0-.7,0-1.3-.2-1.9h0Z"/>
      <path id="path683" class="st4" d="M766.2,143.5c-82.9-2.8-292.7.6-375.3,4-79.9,3.3-298,7.3-388.5,2.5.1.6.2,1.3.3,1.9,30,1.5,60.9,2.2,91.5,2.2,62.8,0,244.4-2.5,298.2-4.7,82.2-3.4,291.6-6.8,373.5-4,.2-.7.2-1.3.3-1.9h0Z"/>
      <path id="path684" class="st4" d="M764,104.6c-60.8,3.5-227.2,3.8-288.7,4.9-73.6,1.3-272.5-1.7-345.8-2.4l-126.2-1.2c-.2.6-.3,1.2-.5,1.8l127,1.2c73.6.7,272.8,3.8,346.9,2.4,61-1.1,223.5-1.4,287.4-4.8.1-.6,0-1.3,0-1.9Z"/>
      <path id="path685" class="st4" d="M475.4,252.6c-73.6,1.3-272.5-1.7-345.8-2.4l-115.6-1.1c.1.6.3,1.2.4,1.8l115.5,1.1c73.6.7,272.8,3.8,346.9,2.4,58.6-1,210.5-1.4,279.1-4.4,0-.6,0-1.3,0-1.9-66.3,3.1-221.7,3.4-280.6,4.5h0Z"/>
      <path id="path686" class="st4" d="M475.4,237c-73.6,1.3-272.5-1.7-345.8-2.4l-118.5-1.1c-.2.6-.3,1.2-.4,1.8l119.2,1.2c73.6.7,272.8,3.8,346.9,2.4,59.1-1,213-1.4,280.8-4.5,0-.6,0-1.3.2-1.9-65.3,3.1-222.9,3.4-282.4,4.5h0Z"/>
      <path id="path687" class="st4" d="M475.4,210.5c-73.6,1.3-272.5-1.7-345.8-2.4l-122.6-1.2c.1.6.1,1.2.2,1.8l122.7,1.2c73.6.7,272.8,3.8,346.9,2.4,60-1.1,218.1-1.4,284.1-4.6,0-.6.3-1.3.5-1.9-62.9,3.4-225.4,3.7-286,4.7h0Z"/>
      <path id="path688" class="st4" d="M766.4,129c-76.3-.6-278.1,1.5-353,3.6-96.5,2.7-315.6,5.4-412.3,2.2v1.8c31.3,1,62.8,1.5,94.4,1.5,66.8,0,253.3-1.9,319-3.7,74.7-2.1,276.3-4.2,352.1-3.6,0-.6,0-1.2-.2-1.8h0Z"/>
      <path id="path689" class="st4" d="M413.4,194.9c-94.8,2.6-307.9,5.3-407,2.4v1.8c29.5.9,59.3,1.3,89.1,1.3,66.8,0,253.3-1.9,319-3.7,73.3-2,268.7-4.1,347.6-3.6,0-.2,0-.3.2-.5,0-.4.2-.9.3-1.3-79.1-.5-275.5,1.5-349.2,3.6h0Z"/>
      <path id="path690" class="st4" d="M377,153.5c-86.9.8-290.9,4.3-371.3,10.3.3.6.6,1.2,1.1,1.8,162.9-12.2,589.3-13.8,756.3-4.5.2-.6.3-1.2.5-1.8-84.8-4.7-297.4-6.7-386.6-5.8h0Z"/>
      <path id="path691" class="st4" d="M764.1,171.4c-192.1-5.4-583.2-4.1-758.5,3.8,0,.4.1.8.1,1.2v.6c159.4-7.9,568.7-9.2,758.5-3.8,0-.6,0-1.2,0-1.8h0Z"/>
      <path id="path692" class="st4" d="M760.6,218v-.5c-192-5.2-575.1-4-751.1,3.8.2.6.4,1.2.5,1.8,161.3-7.7,561.2-8.9,750.8-3.7-.2-.6-.2-1-.2-1.4h0Z"/>
      <path id="path693" class="st4" d="M26.4,266.1c.7.5,1.5,1,2.3,1.4.1.1.2.1.3.2,167.4-6.8,529.8-7.9,717.2-3.2,1.1-.6,2.2-1.1,3.2-1.7-189.1-4.8-544-3.7-723,3.3h0Z"/>
      <path id="path694" class="st4" d="M764.2,94.2c0-.4-.2-.9-.3-1.3-44.6,1.2-222.7,1.7-266.7,1.7s-75.1-.5-111.7-1c-44.2-.6-219.2-1.2-264.3-1-43.1.2-82.6,1.1-118.3,2.8v1.9c35.6-1.7,75.2-2.7,118.5-2.9,44.7-.2,219.5.4,263.5,1,36.8.5,74.8,1,112.3,1,45.1.1,202.7-.5,267.2-1.8-.2,0-.2-.3-.2-.4h0Z"/>
      <path id="path695" class="st4" d="M426.7,116.4c50.6.9,226.1,2.9,275.3,4.9l64,2.5c0-.6-.2-1.2-.2-1.8l-62.2-2.4c-49.4-1.9-225.1-3.9-276.1-4.9-102.8-1.9-326.6.4-425.3,6.8-.1.6-.2,1.3-.2,1.9,98.3-6.6,322-9,424.7-7h0Z"/>
      <path id="path696" class="st4" d="M765.7,182.9l-62.2-2.4c-49.4-1.9-225.1-3.9-276.1-4.9-101.7-1.9-321.8.4-422.1,6.6,0,.6-.1,1.3-.1,1.9,100.1-6.3,319.9-8.6,421.5-6.7,50.6.9,226.1,2.9,275.3,4.9l64,2.5c0-.7-.2-1.3-.3-1.9h0Z"/>
      <path id="path697" class="st0" d="M740.8,44.1c9.7,82.9-1.4,187.5-2,191.1-.6,3.6-1.3,6.8-2.1,9.5-1.5,5.2-9.2,9.4-19,10.1-10.1.8-24.2,1.6-39.5,1.6H92.9c-15.3,0-29.4-.8-39.5-1.6-9.8-.8-17.6-4.9-19-10.1-.8-2.7-1.6-5.9-2.1-9.5-7.5-58-8-131.8-2.6-191.6,1.1-12.1,3.2-15.2,4.7-20.7,1.5-5.2,9.2-9.4,19-10.1,10.1-.8,24.2-1.6,39.5-1.6h585.3c15.3,0,29.3.8,39.5,1.6,9.8.8,17.5,4.9,19,10.1,1.5,5.6,2.9,11.5,4.1,21.2h0Z"/>
      <path id="path698" class="st1" d="M738.6,235.1c-.6,3.6-1.3,6.8-2.1,9.5-1.5,5.2-9.2,9.4-19,10.1-10.1.8-24.2,1.6-39.5,1.6H92.8c-15.3,0-29.4-.8-39.5-1.6-9.8-.8-17.6-4.9-19-10.1-.8-2.7-1.5-5.9-2.1-9.5,12.8,7.2,35.1,12,60.6,12h585.3c25.4,0,47.8-4.8,60.5-12h0Z"/>
      <path id="path699" class="st4" d="M678.2,257.4H92.9c-15.9,0-30.4-.9-39.7-1.6-10.6-.8-18.8-5.2-20.4-10.9-.8-2.8-1.6-6-2.1-9.6-7.2-55.9-8.2-129.3-2.6-191.7.8-9.1,2.2-13.2,3.5-16.9.4-1.3.8-2.5,1.2-3.9,1.6-5.7,9.8-10.1,20.4-10.9,9.4-.7,23.8-1.6,39.7-1.6h585.3c15.9,0,30.4.9,39.7,1.6,10.6.8,18.8,5.2,20.4,10.9,1.7,6,3,11.9,4.1,21.2,10,85.1-1.9,190.4-2,191.3-.5,3.2-1.2,6.4-2.1,9.5-1.6,5.7-9.8,10.1-20.4,10.9-9.4.8-23.8,1.7-39.7,1.7h0ZM92.9,12.1c-15.7,0-30,.9-39.3,1.6-9.2.7-16.3,4.5-17.6,9.4-.4,1.4-.8,2.6-1.2,3.9-1.3,3.8-2.6,7.7-3.4,16.7-5.6,62.3-4.6,135.7,2.6,191.4.5,3.5,1.3,6.7,2.1,9.4,1.4,4.9,8.4,8.7,17.6,9.4,9.2.7,23.6,1.6,39.3,1.6h585.3c15.7,0,30-.9,39.3-1.6,9.2-.7,16.3-4.5,17.6-9.4.9-3.1,1.6-6.3,2.1-9.4,0-.9,12-106,2-191-1.1-9.2-2.4-15.1-4.1-21.1-1.4-4.9-8.4-8.7-17.6-9.4-9.3-.7-23.6-1.6-39.3-1.6H92.9Z"/>
      <path id="path700" class="st2" d="M69,23.9c.3.2.5.4.6.6.2.2.3.4.3.7v.8c-.1.3-.2.5-.3.8s-.4.6-.7.9c-.3.3-.6.6-.9.8-.4.3-.8.5-1.2.8s-.9.5-1.4.7-1,.4-1.6.6c-.5.2-1.1.4-1.6.5-.6.2-1.1.3-1.7.4s-1.1.2-1.6.2-1.1.1-1.5.1-1,0-1.4-.1-.8-.2-1.2-.3-.7-.3-.9-.4c-.3-.2-.5-.4-.6-.6-.2-.2-.3-.4-.3-.7v-.8c.1-.3.2-.5.3-.8s.4-.6.7-.9c.3-.3.6-.6.9-.8.4-.3.8-.5,1.2-.8s.9-.5,1.4-.7,1-.4,1.6-.6c.5-.2,1.1-.4,1.6-.5s1.1-.3,1.7-.4c.6-.1,1.1-.2,1.6-.2s1.1-.1,1.5-.1,1,0,1.4.1.8.2,1.2.3.6.3.9.4Z"/>
      <path id="path702-6" class="st2" d="M56.7,35.1c0,.3-.1.5-.3.8s-.5.5-.8.7-.8.3-1.2.5c-.5.1-1,.2-1.5.2s-1-.1-1.5-.2c-.5-.1-.9-.3-1.2-.5-.4-.2-.6-.4-.8-.7s-.3-.5-.3-.8.1-.5.3-.8.5-.5.8-.7c.4-.2.8-.3,1.2-.5.5-.1,1-.2,1.5-.2s1,.1,1.5.2c.5.1.9.3,1.2.5.4.2.6.4.8.7.2.3.3.6.3.8Z"/>
    </g>
  </g>
</svg>